<svg width="24" height="24" viewBox="0 0 24 24" fill="none" xmlns="http://www.w3.org/2000/svg">
<g clip-path="url(#clip0_5045_2945)">
<path opacity="0.998" fill-rule="evenodd" clip-rule="evenodd" d="M3.70973 1.99147C4.05742 1.94696 4.35366 2.04717 4.5985 2.29206C5.64307 3.88358 6.68189 5.47905 7.71496 7.07847C7.81736 7.47704 7.7789 7.86243 7.59953 8.23461C7.034 9.19818 6.44534 10.1462 5.83354 11.0787C6.09013 11.7547 6.42486 12.3867 6.83773 12.9748C7.93364 14.5195 9.24562 15.8491 10.7737 16.9634C11.4332 17.4383 12.145 17.8199 12.909 18.108C13.7609 17.5555 14.6188 17.0121 15.483 16.4779C15.7427 16.3244 16.0198 16.2165 16.3141 16.1542C16.4603 16.1387 16.6065 16.1387 16.7527 16.1542C16.8247 16.1786 16.8939 16.2095 16.9604 16.2466C18.5518 17.2781 20.137 18.3186 21.7159 19.3682C21.8798 19.5558 21.9643 19.7754 21.9698 20.0272C21.9532 20.3092 21.8724 20.5713 21.7275 20.8134C21.0762 21.7048 20.3491 22.5335 19.5459 23.2991C19.2692 23.5532 18.9614 23.7613 18.6225 23.9234C18.4693 23.9484 18.3154 23.9676 18.1608 23.9812C17.053 23.9528 15.9834 23.7331 14.9521 23.3222C13.4013 22.6886 11.9624 21.8715 10.6352 20.8712C7.60267 18.5813 4.96714 15.903 2.72863 12.836C1.91336 11.6812 1.22851 10.4479 0.674077 9.1364C0.229647 8.05897 -0.00505893 6.93752 -0.0300113 5.77204C-0.0333887 5.54326 0.0243304 5.33132 0.143125 5.13616C0.378383 4.78479 0.640003 4.45337 0.92801 4.14188C1.65786 3.37173 2.46198 2.69734 3.34038 2.11864C3.46379 2.06847 3.5869 2.02608 3.70973 1.99147Z" fill="#DC4641"/>
<path opacity="0.999" fill-rule="evenodd" clip-rule="evenodd" d="M15.3334 0.98999C15.3778 1.56069 15.3927 2.13964 15.378 2.72683C16.8658 2.7159 18.3531 2.72748 19.8399 2.76157C21.2102 3.06468 22.1063 3.90995 22.5282 5.29736C22.5695 5.46504 22.5991 5.63486 22.6174 5.80683C22.6286 7.86786 22.6324 9.92891 22.6286 11.99C21.8849 11.99 21.1413 11.99 20.3976 11.99C20.4014 10.0602 20.3976 8.13033 20.3865 6.20052C20.347 5.61147 20.0533 5.23708 19.5053 5.07736C18.13 5.0435 16.7542 5.03192 15.378 5.04262C15.3854 5.62178 15.378 6.20073 15.3557 6.77946C14.1089 5.81992 12.8671 4.855 11.63 3.88473C12.8651 2.9196 14.0996 1.9547 15.3334 0.98999Z" fill="#DC4641"/>
</g>
<defs>
<clipPath id="clip0_5045_2945">
<rect width="24" height="24" fill="white"/>
</clipPath>
</defs>
</svg>
