<svg width="70" height="70" viewBox="0 0 70 70" fill="none" xmlns="http://www.w3.org/2000/svg">
<g clip-path="url(#clip0_5003_507)">
<path d="M22.5806 48.0101C20.0899 48.0101 18.0645 50.0396 18.0645 52.5354C18.0645 55.0311 20.0899 57.0606 22.5806 57.0606C25.0713 57.0606 27.0967 55.0311 27.0967 52.5354C27.0967 50.0396 25.0713 48.0101 22.5806 48.0101ZM22.5806 54.798C21.3352 54.798 20.3225 53.7833 20.3225 52.5354C20.3225 51.2875 21.3352 50.2728 22.5806 50.2728C23.8259 50.2728 24.8386 51.2875 24.8386 52.5354C24.8386 53.7833 23.8259 54.798 22.5806 54.798Z" fill="#FF5147"/>
<path d="M49.6773 48.0101C47.1866 48.0101 45.1611 50.0396 45.1611 52.5354C45.1611 55.0311 47.1866 57.0606 49.6773 57.0606C52.168 57.0606 54.1934 55.0311 54.1934 52.5354C54.1934 50.0396 52.168 48.0101 49.6773 48.0101ZM49.6773 54.798C48.4319 54.798 47.4192 53.7833 47.4192 52.5354C47.4192 51.2875 48.4319 50.2728 49.6773 50.2728C50.9226 50.2728 51.9353 51.2875 51.9353 52.5354C51.9353 53.7833 50.9226 54.798 49.6773 54.798Z" fill="#FF5147"/>
<path d="M67.7419 36.9053V27.8332C67.7419 26.7549 67.436 25.7043 66.8588 24.7956L60.3266 14.5099C59.7009 13.5255 58.633 12.9383 57.4698 12.9383H49.6774V8.41418H12.6669L10.9733 15.2021H14.4641L14.071 17.4647H4.51611V19.7273H13.6785L12.8923 24.2526H4.51611V26.5152H12.5004L11.7148 31.0404H4.51611V33.3031H11.3217L10.3399 38.9596H8.03552L6.90649 48.0101H6.77418C5.52882 48.0101 4.51611 49.0249 4.51611 50.2728V54.798C4.51611 56.0459 5.52882 57.0607 6.77418 57.0607H14.77C16.3346 59.7613 19.2454 61.5859 22.5806 61.5859C25.9159 61.5859 28.8267 59.7613 30.3912 57.0607H41.8679C43.433 59.7613 46.3432 61.5859 49.6785 61.5859C53.0138 61.5859 55.9246 59.7613 57.4891 57.0607H66.3984L69.9763 40.3285L70 40.091C70 38.6183 69.0529 37.3737 67.7419 36.9053ZM57.4698 15.2021C57.8574 15.2021 58.2141 15.3976 58.4219 15.7257L64.9541 26.012C65.3008 26.5561 65.4839 27.1858 65.4839 27.8332V36.697H61.1712L60.7191 38.9596H42.9032V16.3334C42.9032 15.7092 43.4104 15.2021 44.0322 15.2021H57.4698ZM14.4299 10.6768H47.4193V12.9394H13.8654L14.4299 10.6768ZM16.7557 15.2021H40.853C40.7262 15.5573 40.6451 15.9351 40.6451 16.3334V38.9596H12.6327L16.7557 15.2021ZM10.029 41.2223H60.2676L58.9131 48.0101H57.4869C55.9218 45.3095 53.0116 43.4849 49.6763 43.4849C46.341 43.4849 43.4302 45.3095 41.8657 48.0101H30.3912C28.8267 45.3095 25.9159 43.4849 22.5806 43.4849C19.2454 43.4849 16.3346 45.3095 14.77 48.0101H9.18109L10.029 41.2223ZM6.77418 54.798V50.2728H13.8455C13.6581 50.9981 13.5484 51.7527 13.5484 52.5354C13.5484 53.3181 13.6581 54.0727 13.8455 54.798H6.77418ZM22.5806 59.3233C18.8446 59.3233 15.8064 56.279 15.8064 52.5354C15.8064 48.7918 18.8446 45.7475 22.5806 45.7475C26.3167 45.7475 29.3548 48.7918 29.3548 52.5354C29.3548 56.279 26.3167 59.3233 22.5806 59.3233ZM31.3157 54.798C31.5032 54.0727 31.6129 53.3181 31.6129 52.5354C31.6129 51.7527 31.5032 50.9981 31.3157 50.2728H40.9434C40.7549 50.9981 40.6451 51.7527 40.6451 52.5354C40.6451 53.3181 40.7549 54.0727 40.9423 54.798H31.3157ZM49.6774 59.3233C45.9413 59.3233 42.9032 56.279 42.9032 52.5354C42.9032 48.7918 45.9413 45.7475 49.6774 45.7475C53.4135 45.7475 56.4516 48.7918 56.4516 52.5354C56.4516 56.279 53.4135 59.3233 49.6774 59.3233ZM64.5704 54.798H58.4114C58.6 54.0727 58.7097 53.3181 58.7097 52.5354C58.7097 51.7527 58.6 50.9981 58.4125 50.2728H60.7643L63.0224 38.9596H66.6129C67.2022 38.9596 67.6879 39.4132 67.7375 39.9915L64.5704 54.798Z" fill="#FF5147"/>
<path d="M63.2256 27.3216L57.0772 17.4646H45.1611V32.1717H63.2256V27.3216ZM60.9676 29.909H47.4192V19.7272H55.8257L60.9676 27.9712V29.909Z" fill="#FF5147"/>
<path d="M45.1611 34.4343H51.9353V36.697H45.1611V34.4343Z" fill="#FF5147"/>
<path d="M0 17.4646H2.25806V19.7272H0V17.4646Z" fill="#FF5147"/>
<path d="M0 24.2526H2.25806V26.5152H0V24.2526Z" fill="#FF5147"/>
<path d="M0 31.0404H2.25806V33.303H0V31.0404Z" fill="#FF5147"/>
</g>
<defs>
<clipPath id="clip0_5003_507">
<rect width="70" height="70" fill="white"/>
</clipPath>
</defs>
</svg>
