<svg width="70" height="70" viewBox="0 0 70 70" fill="none" xmlns="http://www.w3.org/2000/svg">
<path d="M41.0496 25.9698C40.9538 25.8707 40.84 25.7921 40.7148 25.7385C40.5896 25.6848 40.4553 25.6572 40.3198 25.6572C40.1842 25.6572 40.05 25.6848 39.9248 25.7385C39.7995 25.7921 39.6858 25.8707 39.59 25.9698L25.1384 40.9051C25.0398 41.0035 24.9611 41.1212 24.907 41.2513C24.8529 41.3815 24.8245 41.5215 24.8233 41.6631C24.8221 41.8048 24.8482 41.9453 24.9001 42.0764C24.952 42.2075 25.0287 42.3266 25.1256 42.4267C25.2225 42.5269 25.3378 42.6061 25.4646 42.6598C25.5915 42.7134 25.7274 42.7404 25.8645 42.7392C26.0015 42.7379 26.137 42.7085 26.2629 42.6526C26.3889 42.5967 26.5028 42.5154 26.598 42.4135L41.0496 27.4783C41.1455 27.3793 41.2215 27.2617 41.2734 27.1323C41.3254 27.0029 41.3521 26.8642 41.3521 26.7241C41.3521 26.584 41.3254 26.4453 41.2734 26.3158C41.2215 26.1864 41.1455 26.0689 41.0496 25.9698Z" fill="#FF5147"/>
<path d="M27.9327 33.1249C28.7494 33.1249 29.5477 32.8746 30.2267 32.4057C30.9057 31.9368 31.4349 31.2704 31.7475 30.4907C32.06 29.7109 32.1417 28.8529 31.9824 28.0252C31.8231 27.1974 31.4299 26.4371 30.8524 25.8403C30.2749 25.2435 29.5392 24.8371 28.7383 24.6724C27.9373 24.5078 27.1071 24.5923 26.3526 24.9153C25.5981 25.2383 24.9533 25.7852 24.4996 26.4869C24.0459 27.1887 23.8037 28.0137 23.8037 28.8577C23.8049 29.989 24.2404 31.0737 25.0144 31.8736C25.7885 32.6736 26.838 33.1236 27.9327 33.1249ZM27.9327 26.7241C28.3411 26.7241 28.7402 26.8492 29.0797 27.0836C29.4192 27.3181 29.6838 27.6513 29.8401 28.0412C29.9964 28.431 30.0372 28.86 29.9576 29.2739C29.8779 29.6878 29.6813 30.068 29.3926 30.3664C29.1038 30.6647 28.736 30.8679 28.3355 30.9503C27.935 31.0326 27.5199 30.9903 27.1427 30.8289C26.7654 30.6674 26.443 30.3939 26.2162 30.043C25.9893 29.6922 25.8682 29.2797 25.8682 28.8577C25.8688 28.292 26.0865 27.7496 26.4735 27.3496C26.8606 26.9496 27.3854 26.7246 27.9327 26.7241Z" fill="#FF5147"/>
<path d="M38.255 35.2585C37.4384 35.2585 36.6401 35.5088 35.961 35.9777C35.282 36.4466 34.7528 37.113 34.4403 37.8928C34.1278 38.6725 34.046 39.5305 34.2053 40.3582C34.3646 41.186 34.7579 41.9463 35.3353 42.5431C35.9128 43.1399 36.6485 43.5463 37.4495 43.711C38.2504 43.8756 39.0806 43.7911 39.8351 43.4681C40.5896 43.1452 41.2345 42.5982 41.6882 41.8965C42.1419 41.1948 42.384 40.3697 42.384 39.5258C42.3828 38.3944 41.9474 37.3098 41.1733 36.5098C40.3992 35.7098 39.3497 35.2598 38.255 35.2585ZM38.255 41.6594C37.8467 41.6594 37.4475 41.5342 37.108 41.2998C36.7685 41.0653 36.5039 40.7321 36.3476 40.3422C36.1914 39.9524 36.1505 39.5234 36.2302 39.1095C36.3098 38.6956 36.5064 38.3155 36.7952 38.0171C37.0839 37.7187 37.4518 37.5155 37.8522 37.4331C38.2527 37.3508 38.6678 37.3931 39.0451 37.5546C39.4223 37.716 39.7447 37.9895 39.9716 38.3404C40.1984 38.6913 40.3195 39.1038 40.3195 39.5258C40.319 40.0914 40.1013 40.6338 39.7142 41.0338C39.3272 41.4338 38.8024 41.6588 38.255 41.6594Z" fill="#FF5147"/>
<path d="M62.2183 27.8111C61.3642 27.059 60.7298 26.0758 60.3862 24.9719C60.0426 23.868 60.0035 22.687 60.2731 21.5613C60.5585 20.3843 60.5909 19.1568 60.3681 17.9654C60.1453 16.774 59.6725 15.6475 58.9832 14.6651C58.2939 13.6828 57.4047 12.8684 56.3781 12.2793C55.3516 11.6902 54.2126 11.3407 53.0413 11.2554C51.9269 11.1697 50.858 10.7632 49.9557 10.082C49.0534 9.40069 48.3537 8.47186 47.936 7.40072C47.5024 6.27403 46.8342 5.25976 45.9788 4.42991C45.1234 3.60005 44.1017 2.97494 42.9863 2.59894C41.8709 2.22294 40.689 2.10527 39.5247 2.25428C38.3603 2.40328 37.242 2.81531 36.249 3.46113C35.3026 4.07244 34.2089 4.3965 33.0929 4.39633C31.9768 4.39616 30.8833 4.07177 29.937 3.46017C28.9441 2.81481 27.8258 2.40317 26.6617 2.25443C25.4975 2.10569 24.316 2.22351 23.2008 2.59952C22.0857 2.97553 21.0642 3.60053 20.209 4.43018C19.3537 5.25982 18.6855 6.2738 18.2519 7.40019C17.833 8.47314 17.1315 9.40326 16.2269 10.085C15.3224 10.7667 14.251 11.1727 13.1345 11.257C11.963 11.3441 10.8243 11.6955 9.79843 12.2865C8.77255 12.8774 7.88444 13.6935 7.1966 14.6773C6.50876 15.6612 6.03791 16.7888 5.81719 17.981C5.59646 19.1731 5.63121 20.4008 5.91901 21.5776C6.18555 22.7046 6.14297 23.886 5.79602 24.9894C5.44908 26.0928 4.81151 27.0744 3.95483 27.8242C3.05722 28.6077 2.3361 29.5845 1.8419 30.6861C1.34771 31.7877 1.09237 32.9876 1.09376 34.2019C1.09514 35.4161 1.35322 36.6154 1.84993 37.7158C2.34664 38.8162 3.06999 39.7912 3.96938 40.5725C4.82337 41.3246 5.45772 42.3077 5.80128 43.4116C6.14484 44.5154 6.18404 45.6964 5.91446 46.8219C5.62904 47.999 5.59661 49.2265 5.81946 50.4179C6.04231 51.6093 6.51502 52.7358 7.20435 53.7182C7.89368 54.7005 8.78289 55.5149 9.80944 56.104C10.836 56.6931 11.975 57.0426 13.1462 57.1279C14.2606 57.2136 15.3295 57.6201 16.2319 58.3013C17.1342 58.9826 17.8338 59.9114 18.2516 60.9826C18.6851 62.1093 19.3533 63.1235 20.2088 63.9534C21.0642 64.7832 22.0859 65.4084 23.2013 65.7844C24.3167 66.1604 25.4985 66.278 26.6629 66.129C27.8272 65.98 28.9456 65.568 29.9386 64.9222C30.8847 64.3109 31.978 63.9869 33.0938 63.9869C34.2095 63.9869 35.3028 64.3109 36.249 64.9222L36.8004 64.0204L36.2505 64.9231C37.2435 65.5685 38.3617 65.9801 39.5259 66.1289C40.69 66.2776 41.8716 66.1598 42.9867 65.7838C44.1019 65.4078 45.1233 64.7828 45.9786 63.9531C46.8339 63.1235 47.502 62.1095 47.9357 60.9831C48.3546 59.9102 49.0561 58.98 49.9606 58.2983C50.8652 57.6166 51.9365 57.2106 53.0531 57.1263C54.2245 57.0392 55.3632 56.6878 56.3891 56.0968C57.415 55.5059 58.3031 54.6898 58.991 53.706C59.6788 52.7221 60.1496 51.5945 60.3704 50.4023C60.5911 49.2102 60.5563 47.9825 60.2686 46.8057C60.002 45.6787 60.0446 44.4973 60.3915 43.3939C60.7385 42.2906 61.376 41.3089 62.2327 40.5592C63.1303 39.7757 63.8514 38.7989 64.3456 37.6973C64.8398 36.5957 65.0951 35.3958 65.0937 34.1815C65.0924 32.9673 64.8343 31.768 64.3376 30.6676C63.8409 29.5672 63.1177 28.5924 62.2183 27.8111ZM60.8876 38.9407C59.7398 39.9508 58.8868 41.2713 58.4242 42.7542C57.9616 44.237 57.9078 45.8237 58.2687 47.3365C58.4814 48.2112 58.5061 49.1234 58.341 50.009C58.176 50.8947 57.8251 51.7321 57.3132 52.4626C56.8012 53.193 56.1406 53.7986 55.3778 54.2368C54.6151 54.675 53.7687 54.9351 52.8981 54.9989C51.3969 55.1137 49.9568 55.6609 48.7411 56.5783C47.5254 57.4957 46.5826 58.7468 46.0197 60.1896C45.6985 61.026 45.2031 61.7789 44.5686 62.3951C43.9341 63.0113 43.1762 63.4756 42.3485 63.755C41.5209 64.0343 40.6439 64.122 39.7798 64.0117C38.9157 63.9013 38.0857 63.5957 37.3487 63.1166C36.0726 62.292 34.5979 61.8549 33.0929 61.8549C31.5879 61.855 30.1132 62.2924 28.8372 63.1171C28.1003 63.5962 27.2704 63.9017 26.4064 64.012C25.5424 64.1222 24.6655 64.0345 23.838 63.7551C23.0105 63.4756 22.2527 63.0113 21.6184 62.3951C20.9841 61.7789 20.4889 61.0259 20.1679 60.1896C19.6036 58.7453 18.6588 57.4933 17.4409 56.5758C16.2229 55.6583 14.7805 55.112 13.2772 54.9989C12.4123 54.9371 11.5711 54.6799 10.8128 54.2453C10.0546 53.8108 9.39798 53.2095 8.88922 52.484C8.37172 51.7492 8.01691 50.9058 7.84992 50.0135C7.68293 49.1212 7.70785 48.2019 7.92293 47.3207C8.28077 45.8067 8.22355 44.2196 7.75768 42.7372C7.29181 41.2549 6.4357 39.936 5.28531 38.9282C4.61765 38.345 4.08137 37.6181 3.71397 36.7983C3.34657 35.9785 3.15694 35.0856 3.15834 34.1821C3.15973 33.2787 3.35212 32.3865 3.72205 31.5679C4.09198 30.7493 4.63051 30.0241 5.29996 29.4431C6.44779 28.433 7.30078 27.1126 7.76335 25.6297C8.22591 24.1468 8.27977 22.5601 7.9189 21.0474C7.70614 20.1727 7.68143 19.2604 7.84651 18.3748C8.01159 17.4892 8.36244 16.6517 8.87439 15.9213C9.38633 15.1908 10.0469 14.5852 10.8097 14.147C11.5725 13.7088 12.4189 13.4487 13.2894 13.3849C14.7907 13.2701 16.2308 12.7229 17.4466 11.8053C18.6623 10.8878 19.605 9.63663 20.1679 8.19368C20.4883 7.35673 20.9834 6.60307 21.6178 5.98634C22.2521 5.36962 23.0102 4.90499 23.8382 4.62552C24.6661 4.34605 25.5434 4.25861 26.4077 4.36943C27.272 4.48026 28.1021 4.78661 28.8388 5.26669C30.1148 6.09159 31.5895 6.52902 33.0946 6.52902C34.5997 6.52902 36.0744 6.09159 37.3504 5.26669C38.0872 4.78761 38.9171 4.48208 39.7811 4.37179C40.645 4.26151 41.5219 4.34917 42.3494 4.62855C43.1769 4.90793 43.9347 5.37219 44.569 5.98834C45.2034 6.60449 45.6986 7.35743 46.0197 8.19368C46.584 9.63802 47.5287 10.89 48.7467 11.8075C49.9647 12.725 51.4071 13.2713 52.9103 13.3844C53.7752 13.4462 54.6165 13.7034 55.3747 14.138C56.1329 14.5725 56.7896 15.1738 57.2983 15.8993C57.8158 16.6341 58.1707 17.4775 58.3376 18.3698C58.5046 19.2621 58.4797 20.1814 58.2646 21.0626C57.9067 22.5768 57.964 24.164 58.43 25.6464C58.8959 27.1288 59.7522 28.4478 60.9028 29.4556C61.5704 30.0388 62.1067 30.7657 62.4741 31.5855C62.8415 32.4053 63.0311 33.2982 63.0297 34.2017C63.0283 35.1051 62.8359 35.9974 62.466 36.816C62.0961 37.6346 61.557 38.3597 60.8876 38.9407Z" fill="#FF5147"/>
<path d="M33.0934 12.8556C29.0102 12.8556 25.0186 14.1069 21.6236 16.4514C18.2285 18.7958 15.5823 22.128 14.0198 26.0267C12.4572 29.9253 12.0483 34.2153 12.8449 38.3541C13.6415 42.4929 15.6078 46.2946 18.4951 49.2785C21.3823 52.2624 25.061 54.2945 29.0657 55.1177C33.0705 55.941 37.2215 55.5184 40.9939 53.9036C44.7663 52.2887 47.9907 49.554 50.2592 46.0453C52.5277 42.5366 53.7385 38.4115 53.7385 34.1916C53.7322 28.535 51.5551 23.1118 47.6847 19.1119C43.8144 15.1121 38.5669 12.8621 33.0934 12.8556ZM33.0934 53.3941C29.4185 53.3941 25.8261 52.2679 22.7705 50.1579C19.715 48.0479 17.3335 45.0489 15.9271 41.5401C14.5208 38.0313 14.1528 34.1703 14.8698 30.4454C15.5867 26.7205 17.3564 23.299 19.9549 20.6135C22.5534 17.9279 25.8642 16.0991 29.4685 15.3582C33.0728 14.6172 36.8087 14.9975 40.2039 16.4509C43.599 17.9043 46.5009 20.3655 48.5426 23.5233C50.5843 26.6812 51.674 30.3938 51.674 34.1916C51.6685 39.2827 49.7092 44.1636 46.2258 47.7636C42.7425 51.3635 38.0196 53.3884 33.0934 53.3941Z" fill="#FF5147"/>
</svg>
