<svg width="241" height="70" viewBox="0 0 241 70" fill="none" xmlns="http://www.w3.org/2000/svg">
<g clip-path="url(#clip0_5043_10262)">
<path d="M86.8399 50.8879C85.7882 50.8879 84.947 50.6671 84.316 50.2255C83.685 49.7647 83.1688 49.1887 82.7673 48.4975C82.3849 47.8063 82.0407 47.1055 81.7348 46.3951C81.4288 45.6655 81.1038 45.0031 80.7596 44.4079C80.4155 43.8127 79.9662 43.4095 79.4117 43.1983V47.6047C79.4117 48.1615 79.5264 48.5647 79.7558 48.8143C80.0044 49.0447 80.425 49.1599 81.0178 49.1599C81.0178 49.4671 80.9508 49.7455 80.817 49.9951C80.7023 50.2447 80.5398 50.4751 80.3294 50.6863H74.0198C73.5609 50.2831 73.3315 49.7743 73.3315 49.1599C73.9051 49.1599 74.3066 49.0447 74.536 48.8143C74.7846 48.5647 74.9089 48.1615 74.9089 47.6047V31.9951C74.9089 31.5535 74.7846 31.2079 74.536 30.9583C74.2875 30.6895 73.7712 30.5551 72.9873 30.5551V29.4031C73.4653 29.1535 74.0198 28.9231 74.6508 28.7119C75.3008 28.5007 75.9414 28.3279 76.5723 28.1935C77.2033 28.0591 77.7195 27.9919 78.1211 27.9919C78.58 27.9919 78.905 28.0975 79.0962 28.3087C79.3065 28.5007 79.4117 28.8463 79.4117 29.3455V42.1615L82.5665 38.8783C82.6812 38.7631 82.7959 38.6287 82.9107 38.4751C83.0445 38.3023 83.1114 38.1487 83.1114 38.0143C83.1114 37.7455 82.9011 37.4959 82.4805 37.2655C82.0789 37.0351 81.687 36.9199 81.3046 36.9199C81.3046 36.2287 81.5245 35.6431 81.9642 35.1631H88.4173C88.6467 35.3935 88.7901 35.6623 88.8475 35.9695C88.9239 36.2767 88.9622 36.5935 88.9622 36.9199C88.4459 36.9199 88.054 37.0063 87.7863 37.1791C87.5377 37.3327 87.3083 37.5055 87.098 37.6975L82.7386 42.0175C83.446 42.1327 84.0388 42.3631 84.5168 42.7087C84.9948 43.0543 85.4441 43.6015 85.8647 44.3503C86.4574 45.4063 86.9163 46.2415 87.2414 46.8559C87.5855 47.4511 87.901 47.9023 88.1878 48.2095C88.4937 48.5167 88.8953 48.7567 89.3924 48.9295L89.4211 49.6207C89.3637 50.0239 89.096 50.3407 88.618 50.5711C88.14 50.7823 87.5473 50.8879 86.8399 50.8879ZM95.6723 50.8015C94.3339 50.8015 93.2918 50.3887 92.5461 49.5631C91.8005 48.7375 91.4276 47.6239 91.4276 46.2223V38.3023C91.4276 37.9759 91.3033 37.7455 91.0548 37.6111C90.8062 37.4767 90.462 37.4095 90.0223 37.4095V36.1423C90.2708 35.9311 90.7871 35.7103 91.571 35.4799C92.3741 35.2303 93.2727 35.1055 94.2669 35.1055C95.0126 35.1055 95.5002 35.1919 95.7296 35.3647C95.9782 35.5375 96.1025 35.9599 96.1025 36.6319V46.3087C96.1025 46.8847 96.1981 47.3263 96.3893 47.6335C96.5805 47.9407 96.9151 48.0943 97.3931 48.0943C97.7946 48.0943 98.177 47.9695 98.5403 47.7199C98.9227 47.4703 99.2382 47.1823 99.4868 46.8559V38.3023C99.4868 37.9759 99.3433 37.7455 99.0565 37.6111C98.7697 37.4767 98.3778 37.4095 97.8807 37.4095V36.1423C98.1483 35.9311 98.6741 35.7103 99.4581 35.4799C100.242 35.2303 101.169 35.1055 102.24 35.1055C102.986 35.1055 103.492 35.1919 103.76 35.3647C104.028 35.5375 104.162 35.9599 104.162 36.6319V47.2303C104.162 47.6911 104.276 48.0751 104.506 48.3823C104.754 48.6895 105.099 48.8623 105.538 48.9007V49.7071C105.232 50.0719 104.745 50.3503 104.076 50.5423C103.425 50.7151 102.795 50.8015 102.183 50.8015C101.552 50.8015 100.997 50.6383 100.519 50.3119C100.06 49.9663 99.7544 49.4767 99.6015 48.8431C98.6646 50.1487 97.3549 50.8015 95.6723 50.8015ZM119.568 50.7727C118.631 50.7727 117.914 50.6287 117.417 50.3407C116.919 50.0527 116.671 49.5919 116.671 48.9583V39.6847C116.671 39.0703 116.499 38.5999 116.155 38.2735C115.81 37.9279 115.361 37.7551 114.807 37.7551C114.443 37.7551 114.051 37.8799 113.631 38.1295C113.229 38.3599 112.923 38.6767 112.713 39.0799V47.4895C112.713 48.0463 112.828 48.4495 113.057 48.6991C113.306 48.9295 113.717 49.0447 114.29 49.0447C114.29 49.6399 114.071 50.1583 113.631 50.5999H107.293C106.853 50.1583 106.633 49.6399 106.633 49.0447C107.207 49.0447 107.608 48.9295 107.838 48.6991C108.086 48.4495 108.21 48.0463 108.21 47.4895V31.8799C108.21 31.4383 108.086 31.0927 107.838 30.8431C107.589 30.5935 107.073 30.4687 106.289 30.4687V29.2879C106.767 29.0383 107.321 28.8079 107.952 28.5967C108.602 28.3855 109.243 28.2223 109.874 28.1071C110.524 27.9727 111.059 27.9055 111.48 27.9055C111.92 27.9055 112.235 28.0111 112.426 28.2223C112.617 28.4143 112.713 28.7503 112.713 29.2303V34.9039L112.656 37.2079C113.153 36.5743 113.793 36.0367 114.577 35.5951C115.361 35.1535 116.25 34.9327 117.244 34.9327C119.96 34.9327 121.317 36.3535 121.317 39.1951V47.2591C121.317 48.2383 121.776 48.8143 122.694 48.9871L122.722 49.8223C122.034 50.4559 120.982 50.7727 119.568 50.7727ZM124.777 50.5999C124.566 50.3887 124.394 50.1583 124.26 49.9087C124.146 49.6591 124.088 49.3807 124.088 49.0735C124.662 49.0735 125.073 48.9487 125.322 48.6991C125.57 48.4495 125.694 48.0463 125.694 47.4895V39.0799C125.694 38.5807 125.551 38.2159 125.264 37.9855C124.996 37.7551 124.499 37.6399 123.773 37.6399V36.3439C124.213 36.0943 124.767 35.8639 125.436 35.6527C126.125 35.4415 126.784 35.2783 127.415 35.1631C128.065 35.0287 128.562 34.9615 128.907 34.9615C129.308 34.9615 129.633 35.0863 129.882 35.3359C130.149 35.5855 130.302 36.1231 130.341 36.9487C130.819 36.3535 131.421 35.8735 132.147 35.5087C132.893 35.1439 133.754 34.9615 134.729 34.9615C136.067 34.9615 137.071 35.3071 137.74 35.9983C138.428 36.6703 138.773 37.8223 138.773 39.4543V47.3167C138.773 48.2575 139.231 48.8143 140.149 48.9871L140.178 49.8223C139.987 50.0143 139.681 50.1871 139.26 50.3407C138.839 50.4751 138.381 50.5807 137.883 50.6575C137.405 50.7343 136.956 50.7727 136.535 50.7727C135.713 50.7727 135.101 50.6191 134.7 50.3119C134.318 50.0047 134.126 49.5151 134.126 48.8431V39.8575C134.126 39.0703 133.954 38.5231 133.61 38.2159C133.266 37.9087 132.845 37.7551 132.348 37.7551C131.564 37.7551 130.905 38.0719 130.369 38.7055V47.4895C130.369 48.0463 130.484 48.4495 130.713 48.6991C130.962 48.9487 131.373 49.0735 131.947 49.0735C131.947 49.6495 131.727 50.1583 131.287 50.5999H124.777ZM144.985 56.6767C143.8 56.6767 142.911 56.4271 142.318 55.9279C141.725 55.4287 141.429 54.8335 141.429 54.1423C141.429 53.6815 141.534 53.2687 141.745 52.9039C141.974 52.5391 142.261 52.2799 142.605 52.1263C143.121 52.7407 143.886 53.0479 144.899 53.0479C145.473 53.0479 146.056 52.7599 146.649 52.1839C147.261 51.6271 147.767 50.7439 148.169 49.5343H145.817L141.4 38.7631C141.171 38.2063 140.97 37.7839 140.798 37.4959C140.626 37.2079 140.244 37.0639 139.651 37.0639C139.651 36.7375 139.699 36.4207 139.794 36.1135C139.89 35.8063 140.043 35.5375 140.253 35.3071H147.022C147.481 35.8063 147.71 36.3919 147.71 37.0639C147.232 37.0639 146.888 37.1887 146.678 37.4383C146.486 37.6879 146.391 38.0047 146.391 38.3887C146.391 38.5231 146.4 38.6767 146.419 38.8495C146.439 39.0031 146.477 39.1663 146.534 39.3391L149.201 47.1439L151.094 38.9647C151.152 38.6959 151.18 38.4655 151.18 38.2735C151.18 37.4671 150.712 37.0639 149.775 37.0639C149.775 36.7375 149.813 36.4207 149.89 36.1135C149.966 35.8063 150.11 35.5375 150.32 35.3071H155.855C156.066 35.5375 156.209 35.8063 156.285 36.1135C156.381 36.4207 156.429 36.7375 156.429 37.0639C155.951 37.0639 155.578 37.1791 155.31 37.4095C155.062 37.6399 154.851 38.0239 154.679 38.5615L151.41 48.7855C150.568 51.5119 149.66 53.5087 148.685 54.7759C147.729 56.0431 146.496 56.6767 144.985 56.6767ZM161.026 50.8015C159.592 50.8015 158.426 50.4079 157.527 49.6207C156.647 48.8143 156.208 47.7871 156.208 46.5391C156.208 45.2911 156.609 44.2831 157.412 43.5151C158.234 42.7471 159.496 42.3631 161.198 42.3631C161.753 42.3631 162.336 42.4207 162.948 42.5359C163.559 42.6319 164.057 42.7855 164.439 42.9967V39.1663C164.439 38.3599 164.229 37.8031 163.808 37.4959C163.406 37.1695 162.909 37.0063 162.317 37.0063C161.686 37.0063 161.169 37.1599 160.768 37.4671C161.15 37.6015 161.428 37.8127 161.6 38.1007C161.772 38.3695 161.858 38.6671 161.858 38.9935C161.858 39.6271 161.628 40.1359 161.169 40.5199C160.73 40.8847 160.185 41.0671 159.535 41.0671C158.808 41.0671 158.225 40.8559 157.785 40.4335C157.345 39.9919 157.125 39.4447 157.125 38.7919C157.125 38.1391 157.345 37.5247 157.785 36.9487C158.225 36.3535 158.904 35.8639 159.821 35.4799C160.758 35.0959 161.963 34.9039 163.435 34.9039C167.278 34.9039 169.2 36.4303 169.2 39.4831V47.1151C169.2 48.0367 169.64 48.5935 170.519 48.7855V49.7071C170.271 50.0719 169.85 50.3503 169.257 50.5423C168.665 50.7151 168.091 50.8015 167.536 50.8015C166.236 50.8015 165.318 50.3503 164.783 49.4479C164.401 49.7935 163.894 50.1103 163.263 50.3983C162.632 50.6671 161.886 50.8015 161.026 50.8015ZM162.89 48.4687C163.158 48.4687 163.435 48.4303 163.722 48.3535C164.009 48.2575 164.248 48.1423 164.439 48.0079V45.2143C164.248 45.0799 163.999 44.9647 163.693 44.8687C163.406 44.7727 163.12 44.7247 162.833 44.7247C162.336 44.7247 161.906 44.8879 161.542 45.2143C161.179 45.5215 160.997 46.0111 160.997 46.6831C160.997 47.2015 161.169 47.6335 161.514 47.9791C161.858 48.3055 162.317 48.4687 162.89 48.4687ZM179.907 50.8303C178.339 50.8303 176.953 50.4655 175.749 49.7359C174.563 48.9871 173.636 47.8831 172.967 46.4239C172.297 44.9647 171.963 43.1407 171.963 40.9519C171.963 38.4943 172.364 36.4783 173.167 34.9039C173.97 33.3103 175.041 32.1391 176.379 31.3903C177.718 30.6223 179.19 30.2383 180.796 30.2383C181.924 30.2383 182.947 30.3919 183.865 30.6991C184.783 30.9871 185.519 31.4383 186.073 32.0527C186.628 32.6479 186.905 33.3967 186.905 34.2991C186.905 35.0287 186.695 35.6431 186.274 36.1423C185.854 36.6415 185.261 36.8911 184.496 36.8911C183.808 36.8911 183.234 36.6895 182.775 36.2863C182.316 35.8831 182.087 35.3743 182.087 34.7599C182.087 34.4527 182.182 34.1455 182.374 33.8383C182.584 33.5311 182.852 33.2911 183.177 33.1183C182.928 32.8303 182.584 32.6191 182.144 32.4847C181.724 32.3311 181.274 32.2543 180.796 32.2543C180.108 32.2543 179.467 32.4751 178.875 32.9167C178.301 33.3583 177.833 34.0879 177.469 35.1055C177.125 36.1231 176.953 37.5151 176.953 39.2815C176.953 39.4351 176.963 39.5407 176.982 39.5983C177.479 39.1183 178.129 38.7535 178.932 38.5039C179.754 38.2351 180.605 38.1007 181.485 38.1007C182.67 38.1007 183.731 38.3407 184.668 38.8207C185.624 39.3007 186.37 39.9823 186.905 40.8655C187.46 41.7295 187.737 42.7759 187.737 44.0047C187.737 45.2719 187.402 46.4239 186.733 47.4607C186.083 48.4783 185.165 49.2943 183.98 49.9087C182.813 50.5231 181.456 50.8303 179.907 50.8303ZM179.993 48.6703C180.49 48.6703 180.959 48.5551 181.399 48.3247C181.857 48.0751 182.23 47.6623 182.517 47.0863C182.804 46.5103 182.947 45.7135 182.947 44.6959C182.947 43.1599 182.632 42.0751 182.001 41.4415C181.389 40.7887 180.662 40.4623 179.821 40.4623C179.171 40.4623 178.597 40.5871 178.1 40.8367C177.603 41.0863 177.221 41.4607 176.953 41.9599C176.934 42.1519 176.924 42.3535 176.924 42.5647C176.924 42.7567 176.924 42.9487 176.924 43.1407C176.924 44.5423 177.068 45.6463 177.355 46.4527C177.661 47.2591 178.043 47.8351 178.502 48.1807C178.98 48.5071 179.477 48.6703 179.993 48.6703ZM190.238 50.9167L189.32 50.1967C189.531 49.0639 189.894 48.0463 190.41 47.1439C190.926 46.2415 191.529 45.4063 192.217 44.6383C192.905 43.8703 193.603 43.1407 194.311 42.4495C195.037 41.7391 195.706 41.0383 196.318 40.3471C196.93 39.6367 197.427 38.8879 197.81 38.1007C198.192 37.2943 198.383 36.4207 198.383 35.4799C198.383 34.3279 198.106 33.4927 197.551 32.9743C197.016 32.4559 196.347 32.1967 195.544 32.1967C194.435 32.1967 193.574 32.6191 192.963 33.4639C193.46 33.5983 193.861 33.8863 194.167 34.3279C194.473 34.7695 194.626 35.2207 194.626 35.6815C194.626 36.3919 194.349 36.9679 193.794 37.4095C193.24 37.8319 192.618 38.0431 191.93 38.0431C191.223 38.0431 190.592 37.7935 190.037 37.2943C189.483 36.7759 189.206 36.0463 189.206 35.1055C189.206 34.2223 189.502 33.4159 190.095 32.6863C190.706 31.9375 191.548 31.3327 192.618 30.8719C193.708 30.4111 194.98 30.1807 196.433 30.1807C197.752 30.1807 198.947 30.3919 200.018 30.8143C201.089 31.2367 201.94 31.8799 202.57 32.7439C203.221 33.5887 203.546 34.6639 203.546 35.9695C203.546 37.0063 203.345 37.9279 202.943 38.7343C202.542 39.5215 202.006 40.2319 201.337 40.8655C200.687 41.4799 199.961 42.0559 199.158 42.5935C198.355 43.1119 197.542 43.6303 196.72 44.1487C195.917 44.6479 195.161 45.1663 194.454 45.7039C193.766 46.2415 193.192 46.8463 192.733 47.5183C193.288 47.2687 193.966 47.0575 194.769 46.8847C195.592 46.6927 196.347 46.5967 197.035 46.5967H198.555C199.473 46.5967 200.295 46.3855 201.022 45.9631C201.748 45.5215 202.217 44.9167 202.427 44.1487H203.23C203.536 44.4175 203.785 44.8015 203.976 45.3007C204.167 45.7999 204.263 46.3279 204.263 46.8847C204.263 47.4799 204.11 48.0847 203.804 48.6991C203.517 49.2943 203.02 49.7935 202.312 50.1967C201.605 50.5807 200.611 50.7727 199.33 50.7727C198.66 50.7727 198.049 50.7343 197.494 50.6575C196.94 50.5807 196.376 50.5039 195.802 50.4271C195.228 50.3503 194.559 50.3119 193.794 50.3119C193.182 50.3119 192.571 50.3599 191.959 50.4559C191.347 50.5519 190.783 50.7055 190.267 50.9167L190.295 50.8879L190.238 50.9167ZM208.375 50.9743C207.495 50.9743 206.788 50.7151 206.252 50.1967C205.717 49.6591 205.449 48.9679 205.449 48.1231C205.449 47.2591 205.717 46.5679 206.252 46.0495C206.788 45.5311 207.495 45.2719 208.375 45.2719C209.235 45.2719 209.933 45.5311 210.468 46.0495C211.004 46.5679 211.271 47.2591 211.271 48.1231C211.271 48.9679 211.004 49.6591 210.468 50.1967C209.933 50.7151 209.235 50.9743 208.375 50.9743ZM212.831 50.5999C212.621 50.3887 212.458 50.1583 212.342 49.9087C212.229 49.6591 212.171 49.3711 212.171 49.0447C212.726 49.0447 213.118 48.9295 213.347 48.6991C213.596 48.4495 213.72 48.0367 213.72 47.4607V39.1375C213.72 38.6383 213.586 38.2831 213.318 38.0719C213.051 37.8415 212.554 37.7263 211.827 37.7263V36.4303C212.286 36.1615 212.831 35.9311 213.462 35.7391C214.093 35.5279 214.714 35.3647 215.326 35.2495C215.938 35.1151 216.416 35.0479 216.76 35.0479C217.2 35.0479 217.515 35.2015 217.706 35.5087C217.917 35.8159 218.022 36.4783 218.022 37.4959C218.232 37.0927 218.538 36.6991 218.94 36.3151C219.36 35.9119 219.829 35.5855 220.345 35.3359C220.861 35.0863 221.397 34.9615 221.951 34.9615C222.85 34.9615 223.49 35.1919 223.873 35.6527C224.255 36.1135 224.446 36.7087 224.446 37.4383C224.446 38.2639 224.236 38.9359 223.815 39.4543C223.395 39.9727 222.812 40.2319 222.066 40.2319C221.416 40.2319 220.9 40.0495 220.517 39.6847C220.135 39.3007 219.944 38.8687 219.944 38.3887C219.944 38.0815 219.972 37.8415 220.03 37.6687C219.724 37.7455 219.427 37.8511 219.14 37.9855C218.854 38.1007 218.567 38.2927 218.28 38.5615V47.2015C218.28 47.6431 218.347 47.9983 218.481 48.2671C218.615 48.5359 218.873 48.7375 219.255 48.8719C219.657 48.9871 220.249 49.0447 221.033 49.0447C221.033 49.3711 220.995 49.6591 220.919 49.9087C220.842 50.1583 220.699 50.3887 220.488 50.5999H212.831ZM230.559 50.8015C229.22 50.8015 228.178 50.3887 227.433 49.5631C226.687 48.7375 226.314 47.6239 226.314 46.2223V38.3023C226.314 37.9759 226.19 37.7455 225.941 37.6111C225.693 37.4767 225.349 37.4095 224.909 37.4095V36.1423C225.157 35.9311 225.674 35.7103 226.458 35.4799C227.261 35.2303 228.159 35.1055 229.153 35.1055C229.899 35.1055 230.387 35.1919 230.616 35.3647C230.865 35.5375 230.989 35.9599 230.989 36.6319V46.3087C230.989 46.8847 231.085 47.3263 231.276 47.6335C231.467 47.9407 231.802 48.0943 232.28 48.0943C232.681 48.0943 233.064 47.9695 233.427 47.7199C233.809 47.4703 234.125 47.1823 234.373 46.8559V38.3023C234.373 37.9759 234.23 37.7455 233.943 37.6111C233.656 37.4767 233.264 37.4095 232.767 37.4095V36.1423C233.035 35.9311 233.561 35.7103 234.345 35.4799C235.129 35.2303 236.056 35.1055 237.127 35.1055C237.872 35.1055 238.379 35.1919 238.647 35.3647C238.914 35.5375 239.048 35.9599 239.048 36.6319V47.2303C239.048 47.6911 239.163 48.0751 239.392 48.3823C239.641 48.6895 239.985 48.8623 240.425 48.9007V49.7071C240.119 50.0719 239.631 50.3503 238.962 50.5423C238.312 50.7151 237.681 50.8015 237.069 50.8015C236.438 50.8015 235.884 50.6383 235.406 50.3119C234.947 49.9663 234.641 49.4767 234.488 48.8431C233.551 50.1487 232.241 50.8015 230.559 50.8015Z" fill="#323232"/>
<mask id="mask0_5043_10262" style="mask-type:luminance" maskUnits="userSpaceOnUse" x="1" y="5" width="60" height="60">
<path d="M60.7504 5H1V65H60.7504V5Z" fill="white"/>
</mask>
<g mask="url(#mask0_5043_10262)">
<path d="M26.6595 20.4838H10.5173C9.45288 20.4838 8.58984 19.6172 8.58984 18.5484V13.8307C8.58984 13.1881 8.90736 12.5876 9.43722 12.2276L12.6856 10.021V6.93548C12.6856 5.86664 13.5487 5 14.613 5H22.5637C23.6281 5 24.4911 5.86664 24.4911 6.93548V10.0209L27.7395 12.2275C28.2694 12.5875 28.5869 13.1881 28.5869 13.8306V18.5482C28.5869 19.6172 27.724 20.4838 26.6595 20.4838Z" fill="#323232"/>
<path d="M52.9875 61.1289H51.5961V51.9353C51.5961 51.4008 51.1646 50.9675 50.6323 50.9675H34.6708C34.1385 50.9675 33.707 51.4008 33.707 51.9353V64.0321C33.707 64.5665 34.1385 64.9998 34.6708 64.9998H53.0417C54.1371 64.9998 55.0185 64.0833 54.967 62.9717C54.9186 61.9304 54.0258 61.1289 52.9875 61.1289ZM43.1635 57.9837H40.7542C39.6894 57.9837 38.8268 57.1175 38.8268 56.0482C38.8268 54.9789 39.6894 54.1127 40.7542 54.1127H43.1635C44.2285 54.1127 45.0909 54.9789 45.0909 56.0482C45.0909 57.1175 44.2285 57.9837 43.1635 57.9837Z" fill="#323232"/>
<path d="M33.7073 46.1293C33.7073 46.664 34.1386 47.097 34.6711 47.097H50.6327C51.1651 47.097 51.5964 46.664 51.5964 46.1293V36.9358H52.5059C53.5442 36.9358 54.4369 36.1338 54.4851 35.0934C54.5369 33.9817 53.6551 33.0648 52.5601 33.0648H25.8468C26.2189 32.0113 26.1783 31.2434 26.1783 30.5245H32.3221C33.3865 30.5245 34.2495 29.6579 34.2495 28.589C34.2495 27.5201 33.3865 26.6536 32.3221 26.6536C31.3987 26.6536 13.6834 26.6536 12.9272 26.6536C11.8628 26.6536 10.9998 27.5201 10.9998 28.589C10.9998 31.2522 10.9168 31.8912 11.3313 33.0648H2.98293C1.94447 33.0648 1.05179 33.8668 1.00364 34.9072C0.951844 36.0188 1.83369 36.9358 2.92868 36.9358H3.89233V63.0648C3.89233 64.1341 4.75489 65.0003 5.81976 65.0003H28.8888C29.4212 65.0003 29.8525 64.5672 29.8525 64.0326V41.345C29.8525 40.3024 30.6512 39.406 31.6872 39.3576C32.7942 39.3055 33.7073 40.191 33.7073 41.2906V46.1293ZM40.7545 40.081H43.1639C44.2288 40.081 45.0913 40.947 45.0913 42.0164C45.0913 43.0858 44.2288 43.9519 43.1639 43.9519H40.7545C39.6897 43.9519 38.8271 43.0858 38.8271 42.0164C38.8271 40.947 39.6897 40.081 40.7545 40.081ZM13.0477 39.839H21.7211C22.786 39.839 23.6486 40.7051 23.6486 41.7745C23.6486 42.8438 22.786 43.71 21.7211 43.71H13.0477C11.9828 43.71 11.1202 42.8438 11.1202 41.7745C11.1202 40.7051 11.9828 39.839 13.0477 39.839ZM25.576 58.4681C25.576 59.5374 24.7134 60.4036 23.6486 60.4036H11.1202C10.0553 60.4036 9.19279 59.5374 9.19279 58.4681V49.5164C9.19279 48.447 10.0553 47.581 11.1202 47.581H23.6486C24.7134 47.581 25.576 48.447 25.576 49.5164V58.4681Z" fill="#323232"/>
<path d="M57.1241 63.9768C56.3908 62.5641 57.529 60.9807 59.0131 61.1389C60.0527 61.2388 60.8443 62.1781 60.7418 63.2546C60.5604 65.1381 58.0395 65.6677 57.1241 63.9768Z" fill="#323232"/>
</g>
</g>
<defs>
<clipPath id="clip0_5043_10262">
<rect width="240" height="70" fill="white" transform="translate(0.5)"/>
</clipPath>
</defs>
</svg>
