<svg width="222" height="70" viewBox="0 0 222 70" fill="none" xmlns="http://www.w3.org/2000/svg">
<g clip-path="url(#clip0_5043_10272)">
<path d="M79.3315 49.5935C78.3597 49.5935 77.5822 49.3838 76.999 48.9643C76.4159 48.5265 75.9388 47.9793 75.5677 47.3227C75.2143 46.666 74.8962 46.0003 74.6135 45.3254C74.3308 44.6323 74.0304 44.003 73.7123 43.4375C73.3943 42.8721 72.979 42.4891 72.4666 42.2884V46.4745C72.4666 47.0035 72.5726 47.3865 72.7846 47.6236C73.0143 47.8425 73.4031 47.9519 73.9509 47.9519C73.9509 48.2438 73.889 48.5083 73.7653 48.7454C73.6593 48.9825 73.5091 49.2014 73.3147 49.402H67.4835C67.0594 49.019 66.8474 48.5356 66.8474 47.9519C67.3775 47.9519 67.7486 47.8425 67.9606 47.6236C68.1903 47.3865 68.3052 47.0035 68.3052 46.4745V31.6454C68.3052 31.2259 68.1903 30.8975 67.9606 30.6604C67.7309 30.4051 67.2538 30.2774 66.5293 30.2774V29.183C66.9711 28.9459 67.4835 28.727 68.0666 28.5263C68.6674 28.3257 69.2594 28.1615 69.8425 28.0339C70.4256 27.9062 70.9027 27.8423 71.2738 27.8423C71.6979 27.8423 71.9983 27.9427 72.175 28.1433C72.3694 28.3257 72.4666 28.654 72.4666 29.1283V41.3035L75.3822 38.1844C75.4882 38.075 75.5942 37.9473 75.7003 37.8014C75.8239 37.6372 75.8858 37.4913 75.8858 37.3636C75.8858 37.1083 75.6914 36.8711 75.3027 36.6523C74.9316 36.4334 74.5693 36.3239 74.2159 36.3239C74.2159 35.6673 74.4191 35.111 74.8256 34.655H80.7893C81.0014 34.8739 81.1339 35.1292 81.1869 35.4211C81.2576 35.7129 81.2929 36.0139 81.2929 36.3239C80.8158 36.3239 80.4536 36.406 80.2062 36.5702C79.9765 36.7161 79.7644 36.8803 79.5701 37.0627L75.5412 41.1667C76.195 41.2761 76.7428 41.495 77.1846 41.8233C77.6263 42.1516 78.0416 42.6715 78.4303 43.3828C78.9781 44.386 79.4022 45.1795 79.7026 45.7631C80.0207 46.3286 80.3122 46.7572 80.5773 47.0491C80.86 47.3409 81.2311 47.5689 81.6905 47.7331L81.717 48.3897C81.664 48.7727 81.4166 49.0737 80.9749 49.2926C80.5331 49.4932 79.9853 49.5935 79.3315 49.5935ZM87.4943 49.5115C86.2573 49.5115 85.2943 49.1193 84.6052 48.335C83.916 47.5507 83.5714 46.4927 83.5714 45.1612V37.6372C83.5714 37.3271 83.4566 37.1083 83.2269 36.9806C82.9971 36.8529 82.6791 36.7891 82.2727 36.7891V35.5852C82.5024 35.3846 82.9795 35.1748 83.704 34.9559C84.4461 34.7188 85.2766 34.6003 86.1955 34.6003C86.8846 34.6003 87.3352 34.6823 87.5473 34.8465C87.777 35.0107 87.8919 35.4119 87.8919 36.0503V45.2433C87.8919 45.7905 87.9802 46.21 88.1569 46.5019C88.3336 46.7937 88.6429 46.9396 89.0846 46.9396C89.4557 46.9396 89.8091 46.8211 90.1448 46.5839C90.4982 46.3468 90.7898 46.0732 91.0195 45.7631V37.6372C91.0195 37.3271 90.887 37.1083 90.6219 36.9806C90.3569 36.8529 89.9946 36.7891 89.5352 36.7891V35.5852C89.7826 35.3846 90.2685 35.1748 90.993 34.9559C91.7175 34.7188 92.5745 34.6003 93.5641 34.6003C94.2532 34.6003 94.7215 34.6823 94.9689 34.8465C95.2162 35.0107 95.3399 35.4119 95.3399 36.0503V46.1188C95.3399 46.5566 95.446 46.9214 95.658 47.2132C95.8877 47.5051 96.2058 47.6692 96.6122 47.7057V48.4718C96.3295 48.8183 95.8789 49.0828 95.2604 49.2652C94.6596 49.4294 94.0765 49.5115 93.5111 49.5115C92.9279 49.5115 92.4155 49.3564 91.9737 49.0463C91.5496 48.718 91.2669 48.2529 91.1255 47.651C90.2597 48.8913 89.0493 49.5115 87.4943 49.5115ZM109.578 49.4841C108.712 49.4841 108.049 49.3473 107.59 49.0737C107.13 48.8001 106.901 48.3623 106.901 47.7604V38.9505C106.901 38.3668 106.742 37.9199 106.424 37.6099C106.106 37.2815 105.69 37.1174 105.178 37.1174C104.842 37.1174 104.48 37.2359 104.091 37.4731C103.72 37.6919 103.437 37.9929 103.243 38.3759V46.3651C103.243 46.894 103.349 47.2771 103.561 47.5142C103.791 47.7331 104.171 47.8425 104.701 47.8425C104.701 48.4079 104.498 48.9004 104.091 49.3199H98.2336C97.8272 48.9004 97.624 48.4079 97.624 47.8425C98.1541 47.8425 98.5252 47.7331 98.7372 47.5142C98.9669 47.2771 99.0818 46.894 99.0818 46.3651V31.5359C99.0818 31.1164 98.9669 30.7881 98.7372 30.551C98.5075 30.3139 98.0304 30.1953 97.3059 30.1953V29.0735C97.7477 28.8364 98.2601 28.6175 98.8432 28.4169C99.4438 28.2163 100.036 28.0612 100.619 27.9518C101.22 27.8241 101.714 27.7603 102.103 27.7603C102.51 27.7603 102.801 27.8606 102.978 28.0612C103.155 28.2436 103.243 28.5628 103.243 29.0188V34.4087L103.19 36.5975C103.649 35.9956 104.241 35.4849 104.966 35.0654C105.69 34.6459 106.512 34.4361 107.431 34.4361C109.94 34.4361 111.195 35.7859 111.195 38.4854V46.1462C111.195 47.0764 111.619 47.6236 112.467 47.7878L112.493 48.5812C111.857 49.1831 110.885 49.4841 109.578 49.4841ZM114.392 49.3199C114.198 49.1193 114.038 48.9004 113.915 48.6633C113.809 48.4262 113.756 48.1617 113.756 47.8699C114.286 47.8699 114.666 47.7513 114.895 47.5142C115.125 47.2771 115.24 46.894 115.24 46.3651V38.3759C115.24 37.9017 115.108 37.5551 114.842 37.3363C114.595 37.1174 114.136 37.0079 113.464 37.0079V35.7767C113.871 35.5396 114.383 35.3207 115.002 35.1201C115.638 34.9195 116.247 34.7644 116.83 34.655C117.431 34.5273 117.891 34.4635 118.209 34.4635C118.58 34.4635 118.88 34.582 119.11 34.8191C119.357 35.0563 119.499 35.567 119.534 36.3513C119.976 35.7859 120.532 35.3299 121.204 34.9833C121.893 34.6367 122.688 34.4635 123.589 34.4635C124.826 34.4635 125.754 34.7918 126.372 35.4484C127.009 36.0868 127.327 37.1812 127.327 38.7316V46.2009C127.327 47.0947 127.751 47.6236 128.599 47.7878L128.625 48.5812C128.449 48.7636 128.166 48.9278 127.777 49.0737C127.388 49.2014 126.964 49.3017 126.505 49.3747C126.063 49.4476 125.648 49.4841 125.259 49.4841C124.499 49.4841 123.934 49.3382 123.563 49.0463C123.209 48.7545 123.033 48.2894 123.033 47.651V39.1147C123.033 38.3668 122.874 37.847 122.556 37.5551C122.238 37.2633 121.849 37.1174 121.389 37.1174C120.665 37.1174 120.055 37.4183 119.56 38.0203V46.3651C119.56 46.894 119.666 47.2771 119.879 47.5142C120.108 47.7513 120.488 47.8699 121.018 47.8699C121.018 48.4171 120.815 48.9004 120.409 49.3199H114.392ZM133.068 55.0929C131.973 55.0929 131.151 54.8558 130.603 54.3815C130.056 53.9073 129.782 53.3419 129.782 52.6852C129.782 52.2475 129.879 51.8553 130.073 51.5087C130.285 51.1622 130.55 50.9159 130.868 50.77C131.346 51.3537 132.052 51.6455 132.989 51.6455C133.519 51.6455 134.058 51.3719 134.606 50.8247C135.171 50.2958 135.639 49.4567 136.011 48.3076H133.837L129.755 38.075C129.543 37.546 129.358 37.1447 129.199 36.8711C129.04 36.5975 128.686 36.4607 128.138 36.4607C128.138 36.1507 128.183 35.8497 128.271 35.5579C128.359 35.266 128.501 35.0107 128.695 34.7918H134.95C135.374 35.266 135.586 35.8223 135.586 36.4607C135.145 36.4607 134.827 36.5793 134.632 36.8164C134.456 37.0535 134.367 37.3545 134.367 37.7193C134.367 37.847 134.376 37.9929 134.394 38.1571C134.411 38.303 134.447 38.458 134.5 38.6222L136.965 46.0367L138.714 38.2665C138.767 38.0111 138.794 37.7923 138.794 37.6099C138.794 36.8438 138.361 36.4607 137.495 36.4607C137.495 36.1507 137.53 35.8497 137.601 35.5579C137.672 35.266 137.804 35.0107 137.998 34.7918H143.114C143.308 35.0107 143.441 35.266 143.512 35.5579C143.6 35.8497 143.644 36.1507 143.644 36.4607C143.202 36.4607 142.858 36.5702 142.61 36.7891C142.381 37.0079 142.186 37.3727 142.027 37.8835L139.006 47.5963C138.228 50.1863 137.389 52.0833 136.488 53.2871C135.604 54.491 134.464 55.0929 133.068 55.0929ZM147.893 49.5115C146.568 49.5115 145.49 49.1375 144.659 48.3897C143.846 47.6236 143.44 46.6478 143.44 45.4622C143.44 44.2766 143.811 43.319 144.553 42.5894C145.313 41.8598 146.479 41.495 148.052 41.495C148.564 41.495 149.103 41.5497 149.669 41.6591C150.234 41.7503 150.694 41.8963 151.047 42.0969V38.458C151.047 37.6919 150.853 37.163 150.464 36.8711C150.093 36.5611 149.633 36.406 149.086 36.406C148.502 36.406 148.025 36.5519 147.654 36.8438C148.008 36.9715 148.264 37.1721 148.423 37.4457C148.582 37.7011 148.661 37.9838 148.661 38.2939C148.661 38.8958 148.449 39.3791 148.025 39.7439C147.619 40.0905 147.115 40.2638 146.515 40.2638C145.843 40.2638 145.304 40.0631 144.898 39.6619C144.491 39.2423 144.288 38.7225 144.288 38.1023C144.288 37.4822 144.491 36.8985 144.898 36.3513C145.304 35.7859 145.931 35.3207 146.78 34.9559C147.645 34.5911 148.759 34.4087 150.119 34.4087C153.671 34.4087 155.447 35.8588 155.447 38.759V46.0094C155.447 46.8849 155.853 47.4139 156.666 47.5963V48.4718C156.436 48.8183 156.048 49.0828 155.5 49.2652C154.952 49.4294 154.422 49.5115 153.91 49.5115C152.708 49.5115 151.86 49.0828 151.365 48.2255C151.012 48.5539 150.543 48.8548 149.96 49.1284C149.377 49.3838 148.688 49.5115 147.893 49.5115ZM149.616 47.2953C149.863 47.2953 150.119 47.2588 150.384 47.1859C150.649 47.0947 150.87 46.9852 151.047 46.8575V44.2036C150.87 44.0759 150.641 43.9665 150.358 43.8753C150.093 43.7841 149.828 43.7385 149.563 43.7385C149.103 43.7385 148.706 43.8935 148.37 44.2036C148.034 44.4955 147.866 44.9606 147.866 45.599C147.866 46.0915 148.025 46.5019 148.343 46.8302C148.661 47.1403 149.086 47.2953 149.616 47.2953ZM165.342 49.5388C163.893 49.5388 162.612 49.1923 161.499 48.4991C160.403 47.7878 159.546 46.739 158.928 45.3527C158.31 43.9665 158 42.2337 158 40.1543C158 37.8196 158.371 35.9044 159.114 34.4087C159.856 32.8948 160.845 31.7822 162.082 31.0708C163.319 30.3412 164.68 29.9764 166.164 29.9764C167.207 29.9764 168.152 30.1223 169 30.4142C169.848 30.6878 170.529 31.1164 171.041 31.7001C171.554 32.2655 171.81 32.9769 171.81 33.8342C171.81 34.5273 171.615 35.111 171.227 35.5852C170.838 36.0595 170.29 36.2966 169.583 36.2966C168.947 36.2966 168.417 36.1051 167.993 35.722C167.569 35.339 167.357 34.8556 167.357 34.2719C167.357 33.9801 167.445 33.6883 167.622 33.3964C167.816 33.1046 168.064 32.8766 168.364 32.7124C168.134 32.4388 167.816 32.2382 167.41 32.1105C167.021 31.9646 166.606 31.8916 166.164 31.8916C165.528 31.8916 164.936 32.1014 164.388 32.5209C163.858 32.9404 163.425 33.6335 163.089 34.6003C162.771 35.567 162.612 36.8894 162.612 38.5675C162.612 38.7134 162.621 38.8137 162.639 38.8684C163.098 38.4124 163.699 38.0659 164.441 37.8287C165.201 37.5734 165.987 37.4457 166.8 37.4457C167.896 37.4457 168.876 37.6737 169.742 38.1297C170.626 38.5857 171.315 39.2332 171.81 40.0723C172.322 40.8931 172.578 41.8871 172.578 43.0545C172.578 44.2583 172.269 45.3527 171.651 46.3377C171.05 47.3044 170.202 48.0796 169.106 48.6633C168.028 49.247 166.774 49.5388 165.342 49.5388ZM165.422 47.4868C165.881 47.4868 166.314 47.3774 166.721 47.1585C167.145 46.9214 167.489 46.5292 167.754 45.982C168.019 45.4348 168.152 44.6779 168.152 43.7111C168.152 42.2519 167.86 41.2214 167.277 40.6195C166.712 39.9993 166.04 39.6892 165.263 39.6892C164.662 39.6892 164.132 39.8078 163.673 40.0449C163.213 40.282 162.86 40.6377 162.612 41.1119C162.595 41.2943 162.586 41.4859 162.586 41.6865C162.586 41.8689 162.586 42.0513 162.586 42.2337C162.586 43.5652 162.718 44.614 162.983 45.3801C163.266 46.1462 163.619 46.6934 164.044 47.0217C164.485 47.3318 164.945 47.4868 165.422 47.4868ZM174.89 49.6209L174.042 48.9369C174.236 47.8607 174.572 46.894 175.049 46.0367C175.526 45.1795 176.083 44.386 176.719 43.6564C177.355 42.9268 178 42.2337 178.654 41.5771C179.325 40.9022 179.944 40.2364 180.509 39.5798C181.075 38.9049 181.534 38.1935 181.887 37.4457C182.241 36.6796 182.418 35.8497 182.418 34.9559C182.418 33.8615 182.161 33.0681 181.649 32.5756C181.154 32.0831 180.536 31.8369 179.793 31.8369C178.769 31.8369 177.973 32.2382 177.408 33.0407C177.867 33.1684 178.238 33.442 178.521 33.8615C178.804 34.2811 178.945 34.7097 178.945 35.1475C178.945 35.8223 178.689 36.3695 178.177 36.7891C177.664 37.1903 177.09 37.391 176.454 37.391C175.8 37.391 175.217 37.1539 174.704 36.6796C174.192 36.1871 173.936 35.494 173.936 34.6003C173.936 33.7612 174.21 32.9951 174.757 32.302C175.323 31.5907 176.1 31.0161 177.09 30.5783C178.097 30.1406 179.272 29.9217 180.615 29.9217C181.834 29.9217 182.939 30.1223 183.928 30.5236C184.918 30.9249 185.704 31.5359 186.287 32.3567C186.888 33.1593 187.189 34.1807 187.189 35.4211C187.189 36.406 187.003 37.2815 186.632 38.0476C186.261 38.7955 185.766 39.4703 185.148 40.0723C184.547 40.6559 183.875 41.2031 183.133 41.7139C182.391 42.2063 181.64 42.6988 180.88 43.1913C180.138 43.6655 179.44 44.158 178.786 44.6687C178.15 45.1795 177.62 45.754 177.196 46.3924C177.708 46.1553 178.336 45.9547 179.078 45.7905C179.838 45.6081 180.536 45.5169 181.172 45.5169H182.577C183.425 45.5169 184.185 45.3163 184.856 44.915C185.528 44.4955 185.96 43.9209 186.155 43.1913H186.897C187.18 43.4467 187.409 43.8115 187.586 44.2857C187.763 44.7599 187.851 45.2615 187.851 45.7905C187.851 46.3559 187.71 46.9305 187.427 47.5142C187.162 48.0796 186.703 48.5539 186.049 48.9369C185.395 49.3017 184.476 49.4841 183.292 49.4841C182.674 49.4841 182.108 49.4476 181.596 49.3747C181.083 49.3017 180.562 49.2287 180.032 49.1558C179.502 49.0828 178.883 49.0463 178.177 49.0463C177.611 49.0463 177.046 49.0919 176.48 49.1831C175.915 49.2743 175.394 49.4203 174.916 49.6209L174.943 49.5935L174.89 49.6209ZM191.651 49.6756C190.839 49.6756 190.185 49.4294 189.69 48.9369C189.195 48.4262 188.948 47.7695 188.948 46.967C188.948 46.1462 189.195 45.4895 189.69 44.9971C190.185 44.5046 190.839 44.2583 191.651 44.2583C192.447 44.2583 193.092 44.5046 193.586 44.9971C194.081 45.4895 194.328 46.1462 194.328 46.967C194.328 47.7695 194.081 48.4262 193.586 48.9369C193.092 49.4294 192.447 49.6756 191.651 49.6756ZM195.77 49.3199C195.575 49.1193 195.425 48.9004 195.318 48.6633C195.213 48.4262 195.16 48.1526 195.16 47.8425C195.673 47.8425 196.035 47.7331 196.247 47.5142C196.477 47.2771 196.591 46.8849 196.591 46.3377V38.4307C196.591 37.9564 196.468 37.619 196.22 37.4183C195.973 37.1995 195.514 37.09 194.842 37.09V35.8588C195.266 35.6035 195.77 35.3846 196.353 35.2022C196.936 35.0015 197.51 34.8465 198.076 34.7371C198.641 34.6094 199.083 34.5455 199.401 34.5455C199.807 34.5455 200.099 34.6915 200.276 34.9833C200.47 35.2751 200.567 35.9044 200.567 36.8711C200.762 36.4881 201.044 36.1142 201.415 35.7494C201.804 35.3663 202.237 35.0563 202.714 34.8191C203.191 34.582 203.686 34.4635 204.199 34.4635C205.029 34.4635 205.621 34.6823 205.974 35.1201C206.328 35.5579 206.505 36.1233 206.505 36.8164C206.505 37.6007 206.31 38.2391 205.921 38.7316C205.533 39.2241 204.994 39.4703 204.305 39.4703C203.704 39.4703 203.227 39.2971 202.873 38.9505C202.52 38.5857 202.343 38.1753 202.343 37.7193C202.343 37.4275 202.37 37.1995 202.423 37.0353C202.14 37.1083 201.866 37.2086 201.601 37.3363C201.336 37.4457 201.071 37.6281 200.806 37.8835V46.0915C200.806 46.511 200.868 46.8484 200.991 47.1038C201.115 47.3591 201.354 47.5507 201.707 47.6783C202.078 47.7878 202.626 47.8425 203.35 47.8425C203.35 48.1526 203.315 48.4262 203.244 48.6633C203.174 48.9004 203.041 49.1193 202.847 49.3199H195.77ZM212.154 49.5115C210.917 49.5115 209.954 49.1193 209.264 48.335C208.575 47.5507 208.231 46.4927 208.231 45.1612V37.6372C208.231 37.3271 208.116 37.1083 207.886 36.9806C207.656 36.8529 207.338 36.7891 206.932 36.7891V35.5852C207.162 35.3846 207.639 35.1748 208.363 34.9559C209.105 34.7188 209.936 34.6003 210.855 34.6003C211.544 34.6003 211.995 34.6823 212.207 34.8465C212.436 35.0107 212.551 35.4119 212.551 36.0503V45.2433C212.551 45.7905 212.639 46.21 212.816 46.5019C212.993 46.7937 213.302 46.9396 213.744 46.9396C214.115 46.9396 214.468 46.8211 214.804 46.5839C215.158 46.3468 215.449 46.0732 215.679 45.7631V37.6372C215.679 37.3271 215.546 37.1083 215.281 36.9806C215.016 36.8529 214.654 36.7891 214.194 36.7891V35.5852C214.442 35.3846 214.928 35.1748 215.652 34.9559C216.377 34.7188 217.234 34.6003 218.223 34.6003C218.912 34.6003 219.381 34.6823 219.628 34.8465C219.876 35.0107 219.999 35.4119 219.999 36.0503V46.1188C219.999 46.5566 220.105 46.9214 220.317 47.2132C220.547 47.5051 220.865 47.6692 221.272 47.7057V48.4718C220.989 48.8183 220.538 49.0828 219.92 49.2652C219.319 49.4294 218.736 49.5115 218.17 49.5115C217.587 49.5115 217.075 49.3564 216.633 49.0463C216.209 48.718 215.926 48.2529 215.785 47.651C214.919 48.8913 213.709 49.5115 212.154 49.5115Z" fill="#EBEBEB"/>
<mask id="mask0_5043_10272" style="mask-type:luminance" maskUnits="userSpaceOnUse" x="0" y="6" width="56" height="57">
<path d="M55.2201 6H0V63H55.2201V6Z" fill="white"/>
</mask>
<g mask="url(#mask0_5043_10272)">
<path d="M23.7138 20.7096H8.79545C7.81176 20.7096 7.01416 19.8863 7.01416 18.8709V14.3891C7.01416 13.7787 7.3076 13.2082 7.7974 12.8662L10.7994 10.77V7.83871C10.7994 6.82331 11.597 6 12.5807 6H19.9286C20.9123 6 21.7099 6.82331 21.7099 7.83871V10.7699L24.7119 12.8661C25.2017 13.2081 25.4951 13.7787 25.4951 14.389V18.8708C25.4951 19.8863 24.6975 20.7096 23.7138 20.7096Z" fill="#EBEBEB"/>
<path d="M48.0457 59.3225H46.7597V50.5886C46.7597 50.0808 46.3609 49.6692 45.869 49.6692H31.1178C30.6258 49.6692 30.2271 50.0808 30.2271 50.5886V62.0805C30.2271 62.5882 30.6258 62.9999 31.1178 62.9999H48.0957C49.1081 62.9999 49.9226 62.1292 49.875 61.0732C49.8303 60.0839 49.0052 59.3225 48.0457 59.3225ZM38.9665 56.3345H36.7399C35.7558 56.3345 34.9586 55.5117 34.9586 54.4958C34.9586 53.48 35.7558 52.6571 36.7399 52.6571H38.9665C39.9508 52.6571 40.7478 53.48 40.7478 54.4958C40.7478 55.5117 39.9508 56.3345 38.9665 56.3345Z" fill="#EBEBEB"/>
<path d="M30.2272 45.0725C30.2272 45.5805 30.6256 45.9918 31.1177 45.9918H45.8691C46.3611 45.9918 46.7597 45.5805 46.7597 45.0725V36.3386H47.6003C48.56 36.3386 49.3849 35.5768 49.4294 34.5884C49.4773 33.5323 48.6624 32.6612 47.6504 32.6612H22.9625C23.3064 31.6604 23.2689 30.9309 23.2689 30.248H28.9468C29.9305 30.248 30.7281 29.4247 30.7281 28.4093C30.7281 27.3938 29.9305 26.5706 28.9468 26.5706C28.0934 26.5706 11.7213 26.5706 11.0225 26.5706C10.0388 26.5706 9.24119 27.3938 9.24119 28.4093C9.24119 30.9393 9.16455 31.5463 9.54767 32.6612H1.8322C0.872477 32.6612 0.0474889 33.4231 0.00298153 34.4115C-0.0448722 35.4676 0.770099 36.3386 1.78206 36.3386H2.67276V61.1612C2.67276 62.1771 3.46981 62.9999 4.45405 62.9999H25.7739C26.266 62.9999 26.6645 62.5885 26.6645 62.0806V40.5275C26.6645 39.5369 27.4026 38.6853 28.36 38.6394C29.3832 38.5899 30.2272 39.4311 30.2272 40.4757V45.0725ZM36.7399 39.3266H38.9666C39.9507 39.3266 40.7479 40.1493 40.7479 41.1653C40.7479 42.1811 39.9507 43.004 38.9666 43.004H36.7399C35.7558 43.004 34.9586 42.1811 34.9586 41.1653C34.9586 40.1493 35.7558 39.3266 36.7399 39.3266ZM11.1338 39.0968H19.1497C20.1338 39.0968 20.931 39.9195 20.931 40.9355C20.931 41.9513 20.1338 42.7742 19.1497 42.7742H11.1338C10.1497 42.7742 9.35252 41.9513 9.35252 40.9355C9.35252 39.9195 10.1497 39.0968 11.1338 39.0968ZM22.7122 56.7943C22.7122 57.8102 21.9151 58.6331 20.931 58.6331H9.35252C8.36838 58.6331 7.57123 57.8102 7.57123 56.7943V48.2903C7.57123 47.2743 8.36838 46.4516 9.35252 46.4516H20.931C21.9151 46.4516 22.7122 47.2743 22.7122 48.2903V56.7943Z" fill="#EBEBEB"/>
<path d="M51.8685 62.0279C51.1908 60.6859 52.2427 59.1817 53.6142 59.3319C54.575 59.4269 55.3066 60.3192 55.2117 61.3419C55.0442 63.1312 52.7145 63.6343 51.8685 62.0279Z" fill="#EBEBEB"/>
</g>
</g>
<defs>
<clipPath id="clip0_5043_10272">
<rect width="221" height="70" fill="white" transform="translate(0.5)"/>
</clipPath>
</defs>
</svg>
