<svg width="222" height="70" viewBox="0 0 222 70" fill="none" xmlns="http://www.w3.org/2000/svg">
<g clip-path="url(#clip0_5043_10282)">
<path d="M80.0154 49.0638C79.0474 49.0638 78.273 48.8614 77.6922 48.4566C77.1114 48.0342 76.6362 47.5062 76.2666 46.8726C75.9146 46.239 75.5978 45.5966 75.3162 44.9454C75.0346 44.2766 74.7354 43.6694 74.4186 43.1238C74.1018 42.5782 73.6882 42.2086 73.1778 42.015V46.0542C73.1778 46.5646 73.2834 46.9342 73.4946 47.163C73.7234 47.3742 74.1106 47.4798 74.6562 47.4798C74.6562 47.7614 74.5946 48.0166 74.4714 48.2454C74.3658 48.4742 74.2162 48.6854 74.0226 48.879H68.2146C67.7922 48.5094 67.581 48.043 67.581 47.4798C68.109 47.4798 68.4786 47.3742 68.6898 47.163C68.9186 46.9342 69.033 46.5646 69.033 46.0542V31.7454C69.033 31.3406 68.9186 31.0238 68.6898 30.795C68.461 30.5486 67.9858 30.4254 67.2642 30.4254V29.3694C67.7042 29.1406 68.2146 28.9294 68.7954 28.7358C69.3938 28.5422 69.9834 28.3838 70.5642 28.2606C71.145 28.1374 71.6202 28.0758 71.9898 28.0758C72.4122 28.0758 72.7114 28.1726 72.8874 28.3662C73.081 28.5422 73.1778 28.859 73.1778 29.3166V41.0646L76.0818 38.055C76.1874 37.9494 76.293 37.8262 76.3986 37.6854C76.5218 37.527 76.5834 37.3862 76.5834 37.263C76.5834 37.0166 76.3898 36.7878 76.0026 36.5766C75.633 36.3654 75.2722 36.2598 74.9202 36.2598C74.9202 35.6262 75.1226 35.0894 75.5274 34.6494H81.4674C81.6786 34.8606 81.8106 35.107 81.8634 35.3886C81.9338 35.6702 81.969 35.9606 81.969 36.2598C81.4938 36.2598 81.133 36.339 80.8866 36.4974C80.6578 36.6382 80.4466 36.7966 80.253 36.9726L76.2402 40.9326C76.8914 41.0382 77.437 41.2494 77.877 41.5662C78.317 41.883 78.7306 42.3846 79.1178 43.071C79.6634 44.039 80.0858 44.8046 80.385 45.3678C80.7018 45.9134 80.9922 46.327 81.2562 46.6086C81.5378 46.8902 81.9074 47.1102 82.365 47.2686L82.3914 47.9022C82.3386 48.2718 82.0922 48.5622 81.6522 48.7734C81.2122 48.967 80.6666 49.0638 80.0154 49.0638ZM88.1456 48.9846C86.9136 48.9846 85.9544 48.6062 85.268 47.8494C84.5816 47.0926 84.2384 46.0718 84.2384 44.787V37.527C84.2384 37.2278 84.124 37.0166 83.8952 36.8934C83.6664 36.7702 83.3496 36.7086 82.9448 36.7086V35.547C83.1736 35.3534 83.6488 35.151 84.3704 34.9398C85.1096 34.711 85.9368 34.5966 86.852 34.5966C87.5384 34.5966 87.9872 34.6758 88.1984 34.8342C88.4272 34.9926 88.5416 35.3798 88.5416 35.9958V44.8662C88.5416 45.3942 88.6296 45.799 88.8056 46.0806C88.9816 46.3622 89.2896 46.503 89.7296 46.503C90.0992 46.503 90.4512 46.3886 90.7856 46.1598C91.1376 45.931 91.428 45.667 91.6568 45.3678V37.527C91.6568 37.2278 91.5248 37.0166 91.2608 36.8934C90.9968 36.7702 90.636 36.7086 90.1784 36.7086V35.547C90.4248 35.3534 90.9088 35.151 91.6304 34.9398C92.352 34.711 93.2056 34.5966 94.1912 34.5966C94.8776 34.5966 95.344 34.6758 95.5904 34.8342C95.8368 34.9926 95.96 35.3798 95.96 35.9958V45.711C95.96 46.1334 96.0656 46.4854 96.2768 46.767C96.5056 47.0486 96.8224 47.207 97.2272 47.2422V47.9814C96.9456 48.3158 96.4968 48.571 95.8808 48.747C95.2824 48.9054 94.7016 48.9846 94.1384 48.9846C93.5576 48.9846 93.0472 48.835 92.6072 48.5358C92.1848 48.219 91.9032 47.7702 91.7624 47.1894C90.9 48.3862 89.6944 48.9846 88.1456 48.9846ZM110.141 48.9582C109.279 48.9582 108.619 48.8262 108.161 48.5622C107.703 48.2982 107.475 47.8758 107.475 47.295V38.7942C107.475 38.231 107.316 37.7998 106.999 37.5006C106.683 37.1838 106.269 37.0254 105.759 37.0254C105.424 37.0254 105.063 37.1398 104.676 37.3686C104.307 37.5798 104.025 37.8702 103.831 38.2398V45.9486C103.831 46.459 103.937 46.8286 104.148 47.0574C104.377 47.2686 104.755 47.3742 105.283 47.3742C105.283 47.9198 105.081 48.395 104.676 48.7998H98.8421C98.4373 48.395 98.2349 47.9198 98.2349 47.3742C98.7629 47.3742 99.1325 47.2686 99.3437 47.0574C99.5725 46.8286 99.6869 46.459 99.6869 45.9486V31.6398C99.6869 31.235 99.5725 30.9182 99.3437 30.6894C99.1149 30.4606 98.6397 30.3462 97.9181 30.3462V29.2638C98.3581 29.035 98.8685 28.8238 99.4493 28.6302C100.047 28.4366 100.637 28.287 101.218 28.1814C101.816 28.0582 102.309 27.9966 102.696 27.9966C103.101 27.9966 103.391 28.0934 103.567 28.287C103.743 28.463 103.831 28.771 103.831 29.211V34.4118L103.779 36.5238C104.236 35.943 104.826 35.4502 105.547 35.0454C106.269 34.6406 107.087 34.4382 108.003 34.4382C110.502 34.4382 111.751 35.7406 111.751 38.3454V45.7374C111.751 46.635 112.174 47.163 113.019 47.3214L113.045 48.087C112.411 48.6678 111.443 48.9582 110.141 48.9582ZM114.936 48.7998C114.742 48.6062 114.584 48.395 114.461 48.1662C114.355 47.9374 114.302 47.6822 114.302 47.4006C114.83 47.4006 115.209 47.2862 115.438 47.0574C115.666 46.8286 115.781 46.459 115.781 45.9486V38.2398C115.781 37.7822 115.649 37.4478 115.385 37.2366C115.138 37.0254 114.681 36.9198 114.012 36.9198V35.7318C114.417 35.503 114.927 35.2918 115.543 35.0982C116.177 34.9046 116.784 34.755 117.365 34.6494C117.963 34.5262 118.421 34.4646 118.738 34.4646C119.107 34.4646 119.406 34.579 119.635 34.8078C119.882 35.0366 120.022 35.5294 120.058 36.2862C120.498 35.7406 121.052 35.3006 121.721 34.9662C122.407 34.6318 123.199 34.4646 124.097 34.4646C125.329 34.4646 126.253 34.7814 126.869 35.415C127.502 36.031 127.819 37.087 127.819 38.583V45.7902C127.819 46.6526 128.242 47.163 129.086 47.3214L129.113 48.087C128.937 48.263 128.655 48.4214 128.268 48.5622C127.881 48.6854 127.458 48.7822 127.001 48.8526C126.561 48.923 126.147 48.9582 125.76 48.9582C125.003 48.9582 124.44 48.8174 124.07 48.5358C123.718 48.2542 123.542 47.8054 123.542 47.1894V38.9526C123.542 38.231 123.384 37.7294 123.067 37.4478C122.75 37.1662 122.363 37.0254 121.906 37.0254C121.184 37.0254 120.577 37.3158 120.084 37.8966V45.9486C120.084 46.459 120.19 46.8286 120.401 47.0574C120.63 47.2862 121.008 47.4006 121.536 47.4006C121.536 47.9286 121.334 48.395 120.929 48.7998H114.936ZM133.538 54.3702C132.447 54.3702 131.628 54.1414 131.083 53.6838C130.537 53.2262 130.264 52.6806 130.264 52.047C130.264 51.6246 130.361 51.2462 130.555 50.9118C130.766 50.5774 131.03 50.3398 131.347 50.199C131.822 50.7622 132.526 51.0438 133.459 51.0438C133.987 51.0438 134.524 50.7798 135.069 50.2518C135.632 49.7414 136.099 48.9318 136.468 47.823H134.304L130.238 37.9494C130.027 37.439 129.842 37.0518 129.684 36.7878C129.525 36.5238 129.173 36.3918 128.628 36.3918C128.628 36.0926 128.672 35.8022 128.76 35.5206C128.848 35.239 128.988 34.9926 129.182 34.7814H135.412C135.835 35.239 136.046 35.7758 136.046 36.3918C135.606 36.3918 135.289 36.5062 135.096 36.735C134.92 36.9638 134.832 37.2542 134.832 37.6062C134.832 37.7294 134.84 37.8702 134.858 38.0286C134.876 38.1694 134.911 38.319 134.964 38.4774L137.419 45.6318L139.161 38.1342C139.214 37.8878 139.24 37.6766 139.24 37.5006C139.24 36.7614 138.809 36.3918 137.947 36.3918C137.947 36.0926 137.982 35.8022 138.052 35.5206C138.123 35.239 138.255 34.9926 138.448 34.7814H143.544C143.737 34.9926 143.869 35.239 143.94 35.5206C144.028 35.8022 144.072 36.0926 144.072 36.3918C143.632 36.3918 143.288 36.4974 143.042 36.7086C142.813 36.9198 142.62 37.2718 142.461 37.7646L139.452 47.1366C138.677 49.6358 137.841 51.4662 136.944 52.6278C136.064 53.7894 134.928 54.3702 133.538 54.3702ZM148.303 48.9846C146.983 48.9846 145.91 48.6238 145.083 47.9022C144.273 47.163 143.868 46.2214 143.868 45.0774C143.868 43.9334 144.238 43.0094 144.977 42.3054C145.734 41.6014 146.895 41.2494 148.462 41.2494C148.972 41.2494 149.509 41.3022 150.072 41.4078C150.635 41.4958 151.093 41.6366 151.445 41.8302V38.319C151.445 37.5798 151.251 37.0694 150.864 36.7878C150.495 36.4886 150.037 36.339 149.491 36.339C148.911 36.339 148.435 36.4798 148.066 36.7614C148.418 36.8846 148.673 37.0782 148.831 37.3422C148.99 37.5886 149.069 37.8614 149.069 38.1606C149.069 38.7414 148.858 39.2078 148.435 39.5598C148.031 39.8942 147.529 40.0614 146.931 40.0614C146.262 40.0614 145.725 39.8678 145.32 39.4806C144.915 39.0758 144.713 38.5742 144.713 37.9758C144.713 37.3774 144.915 36.8142 145.32 36.2862C145.725 35.7406 146.35 35.2918 147.195 34.9398C148.057 34.5878 149.166 34.4118 150.521 34.4118C154.059 34.4118 155.827 35.811 155.827 38.6094V45.6054C155.827 46.4502 156.232 46.9606 157.042 47.1366V47.9814C156.813 48.3158 156.426 48.571 155.88 48.747C155.335 48.9054 154.807 48.9846 154.296 48.9846C153.099 48.9846 152.255 48.571 151.762 47.7438C151.41 48.0606 150.943 48.351 150.363 48.615C149.782 48.8614 149.095 48.9846 148.303 48.9846ZM150.019 46.8462C150.266 46.8462 150.521 46.811 150.785 46.7406C151.049 46.6526 151.269 46.547 151.445 46.4238V43.863C151.269 43.7398 151.04 43.6342 150.759 43.5462C150.495 43.4582 150.231 43.4142 149.967 43.4142C149.509 43.4142 149.113 43.5638 148.779 43.863C148.444 44.1446 148.277 44.5934 148.277 45.2094C148.277 45.6846 148.435 46.0806 148.752 46.3974C149.069 46.6966 149.491 46.8462 150.019 46.8462ZM165.683 49.011C164.24 49.011 162.964 48.6766 161.855 48.0078C160.764 47.3214 159.911 46.3094 159.295 44.9718C158.679 43.6342 158.371 41.9622 158.371 39.9558C158.371 37.703 158.74 35.855 159.479 34.4118C160.219 32.951 161.204 31.8774 162.436 31.191C163.668 30.487 165.023 30.135 166.502 30.135C167.54 30.135 168.482 30.2758 169.327 30.5574C170.171 30.8214 170.849 31.235 171.359 31.7982C171.87 32.3438 172.125 33.0302 172.125 33.8574C172.125 34.5262 171.931 35.0894 171.544 35.547C171.157 36.0046 170.611 36.2334 169.907 36.2334C169.274 36.2334 168.746 36.0486 168.323 35.679C167.901 35.3094 167.69 34.843 167.69 34.2798C167.69 33.9982 167.778 33.7166 167.954 33.435C168.147 33.1534 168.394 32.9334 168.693 32.775C168.464 32.511 168.147 32.3174 167.743 32.1942C167.355 32.0534 166.942 31.983 166.502 31.983C165.868 31.983 165.279 32.1854 164.733 32.5902C164.205 32.995 163.774 33.6638 163.439 34.5966C163.123 35.5294 162.964 36.8054 162.964 38.4246C162.964 38.5654 162.973 38.6622 162.991 38.715C163.448 38.275 164.047 37.9406 164.786 37.7118C165.543 37.4654 166.326 37.3422 167.135 37.3422C168.227 37.3422 169.203 37.5622 170.066 38.0022C170.946 38.4422 171.632 39.067 172.125 39.8766C172.635 40.6686 172.891 41.6278 172.891 42.7542C172.891 43.9158 172.583 44.9718 171.967 45.9222C171.368 46.855 170.523 47.603 169.432 48.1662C168.359 48.7294 167.109 49.011 165.683 49.011ZM165.763 47.031C166.22 47.031 166.651 46.9254 167.056 46.7142C167.479 46.4854 167.822 46.107 168.086 45.579C168.35 45.051 168.482 44.3206 168.482 43.3878C168.482 41.9798 168.191 40.9854 167.611 40.4046C167.047 39.8062 166.379 39.507 165.604 39.507C165.006 39.507 164.478 39.6214 164.02 39.8502C163.563 40.079 163.211 40.4222 162.964 40.8798C162.947 41.0558 162.938 41.2406 162.938 41.4342C162.938 41.6102 162.938 41.7862 162.938 41.9622C162.938 43.247 163.07 44.259 163.334 44.9982C163.615 45.7374 163.967 46.2654 164.39 46.5822C164.83 46.8814 165.287 47.031 165.763 47.031ZM175.193 49.0902L174.348 48.4302C174.542 47.3918 174.876 46.459 175.351 45.6318C175.826 44.8046 176.381 44.039 177.014 43.335C177.648 42.631 178.29 41.9622 178.942 41.3286C179.61 40.6774 180.226 40.035 180.79 39.4014C181.353 38.7502 181.81 38.0638 182.162 37.3422C182.514 36.603 182.69 35.8022 182.69 34.9398C182.69 33.8838 182.435 33.1182 181.925 32.643C181.432 32.1678 180.816 31.9302 180.077 31.9302C179.056 31.9302 178.264 32.3174 177.701 33.0918C178.158 33.215 178.528 33.479 178.81 33.8838C179.091 34.2886 179.232 34.7022 179.232 35.1246C179.232 35.7758 178.977 36.3038 178.466 36.7086C177.956 37.0958 177.384 37.2894 176.75 37.2894C176.099 37.2894 175.518 37.0606 175.008 36.603C174.498 36.1278 174.242 35.459 174.242 34.5966C174.242 33.787 174.515 33.0478 175.061 32.379C175.624 31.6926 176.398 31.1382 177.384 30.7158C178.387 30.2934 179.558 30.0822 180.895 30.0822C182.11 30.0822 183.21 30.2758 184.195 30.663C185.181 31.0502 185.964 31.6398 186.545 32.4318C187.143 33.2062 187.442 34.1918 187.442 35.3886C187.442 36.339 187.258 37.1838 186.888 37.923C186.518 38.6446 186.026 39.2958 185.41 39.8766C184.811 40.4398 184.142 40.9678 183.403 41.4606C182.664 41.9358 181.916 42.411 181.159 42.8862C180.42 43.3438 179.725 43.819 179.074 44.3118C178.44 44.8046 177.912 45.359 177.49 45.975C178 45.7462 178.625 45.5526 179.364 45.3942C180.121 45.2182 180.816 45.1302 181.45 45.1302H182.849C183.694 45.1302 184.45 44.9366 185.119 44.5494C185.788 44.1446 186.219 43.5902 186.413 42.8862H187.152C187.434 43.1326 187.662 43.4846 187.838 43.9422C188.014 44.3998 188.102 44.8838 188.102 45.3942C188.102 45.9398 187.962 46.4942 187.68 47.0574C187.416 47.603 186.958 48.0606 186.307 48.4302C185.656 48.7822 184.741 48.9582 183.562 48.9582C182.946 48.9582 182.382 48.923 181.872 48.8526C181.362 48.7822 180.842 48.7118 180.314 48.6414C179.786 48.571 179.17 48.5358 178.466 48.5358C177.903 48.5358 177.34 48.5798 176.777 48.6678C176.214 48.7558 175.694 48.8966 175.219 49.0902L175.246 49.0638L175.193 49.0902ZM191.888 49.143C191.078 49.143 190.427 48.9054 189.934 48.4302C189.441 47.9374 189.195 47.3038 189.195 46.5294C189.195 45.7374 189.441 45.1038 189.934 44.6286C190.427 44.1534 191.078 43.9158 191.888 43.9158C192.68 43.9158 193.322 44.1534 193.815 44.6286C194.308 45.1038 194.554 45.7374 194.554 46.5294C194.554 47.3038 194.308 47.9374 193.815 48.4302C193.322 48.9054 192.68 49.143 191.888 49.143ZM195.989 48.7998C195.796 48.6062 195.646 48.395 195.54 48.1662C195.435 47.9374 195.382 47.6734 195.382 47.3742C195.893 47.3742 196.253 47.2686 196.465 47.0574C196.693 46.8286 196.808 46.4502 196.808 45.9222V38.2926C196.808 37.835 196.685 37.5094 196.438 37.3158C196.192 37.1046 195.734 36.999 195.065 36.999V35.811C195.488 35.5646 195.989 35.3534 196.57 35.1774C197.151 34.9838 197.723 34.8342 198.286 34.7286C198.849 34.6054 199.289 34.5438 199.606 34.5438C200.011 34.5438 200.301 34.6846 200.477 34.9662C200.671 35.2478 200.768 35.855 200.768 36.7878C200.961 36.4182 201.243 36.0574 201.613 35.7054C202 35.3358 202.431 35.0366 202.906 34.8078C203.381 34.579 203.874 34.4646 204.385 34.4646C205.212 34.4646 205.801 34.6758 206.153 35.0982C206.505 35.5206 206.681 36.0662 206.681 36.735C206.681 37.4918 206.488 38.1078 206.101 38.583C205.713 39.0582 205.177 39.2958 204.49 39.2958C203.892 39.2958 203.417 39.1286 203.065 38.7942C202.713 38.4422 202.537 38.0462 202.537 37.6062C202.537 37.3246 202.563 37.1046 202.616 36.9462C202.334 37.0166 202.061 37.1134 201.797 37.2366C201.533 37.3422 201.269 37.5182 201.005 37.7646V45.6846C201.005 46.0894 201.067 46.415 201.19 46.6614C201.313 46.9078 201.551 47.0926 201.903 47.2158C202.273 47.3214 202.818 47.3742 203.54 47.3742C203.54 47.6734 203.505 47.9374 203.434 48.1662C203.364 48.395 203.232 48.6062 203.038 48.7998H195.989ZM212.308 48.9846C211.076 48.9846 210.117 48.6062 209.43 47.8494C208.744 47.0926 208.401 46.0718 208.401 44.787V37.527C208.401 37.2278 208.286 37.0166 208.058 36.8934C207.829 36.7702 207.512 36.7086 207.107 36.7086V35.547C207.336 35.3534 207.811 35.151 208.533 34.9398C209.272 34.711 210.099 34.5966 211.014 34.5966C211.701 34.5966 212.15 34.6758 212.361 34.8342C212.59 34.9926 212.704 35.3798 212.704 35.9958V44.8662C212.704 45.3942 212.792 45.799 212.968 46.0806C213.144 46.3622 213.452 46.503 213.892 46.503C214.262 46.503 214.614 46.3886 214.948 46.1598C215.3 45.931 215.59 45.667 215.819 45.3678V37.527C215.819 37.2278 215.687 37.0166 215.423 36.8934C215.159 36.7702 214.798 36.7086 214.341 36.7086V35.547C214.587 35.3534 215.071 35.151 215.793 34.9398C216.514 34.711 217.368 34.5966 218.354 34.5966C219.04 34.5966 219.506 34.6758 219.753 34.8342C219.999 34.9926 220.122 35.3798 220.122 35.9958V45.711C220.122 46.1334 220.228 46.4854 220.439 46.767C220.668 47.0486 220.985 47.207 221.39 47.2422V47.9814C221.108 48.3158 220.659 48.571 220.043 48.747C219.445 48.9054 218.864 48.9846 218.301 48.9846C217.72 48.9846 217.21 48.835 216.77 48.5358C216.347 48.219 216.066 47.7702 215.925 47.1894C215.062 48.3862 213.857 48.9846 212.308 48.9846Z" fill="#EBEBEB"/>
<mask id="mask0_5043_10282" style="mask-type:luminance" maskUnits="userSpaceOnUse" x="1" y="7" width="55" height="55">
<path d="M56 7H1V62H56V7Z" fill="white"/>
</mask>
<g mask="url(#mask0_5043_10282)">
<path d="M24.6193 21.1935H9.76052C8.78075 21.1935 7.98633 20.3991 7.98633 19.4193V15.0948C7.98633 14.5057 8.2786 13.9553 8.76634 13.6253L11.7565 11.6026V8.77419C11.7565 7.79442 12.5509 7 13.5307 7H20.8492C21.8289 7 22.6234 7.79442 22.6234 8.77419V11.6025L25.6135 13.6252C26.1012 13.9552 26.3935 14.5057 26.3935 15.0947V19.4192C26.3935 20.3991 25.5992 21.1935 24.6193 21.1935Z" fill="#EBEBEB"/>
<path d="M48.8541 58.4515H47.5732V50.0241C47.5732 49.5342 47.176 49.137 46.6861 49.137H31.9936C31.5037 49.137 31.1064 49.5342 31.1064 50.0241V61.1128C31.1064 61.6027 31.5037 61.9999 31.9936 61.9999H48.9039C49.9123 61.9999 50.7235 61.1597 50.6761 60.1408C50.6316 59.1862 49.8097 58.4515 48.8541 58.4515ZM39.8111 55.5684H37.5934C36.6132 55.5684 35.8192 54.7745 35.8192 53.7943C35.8192 52.814 36.6132 52.0201 37.5934 52.0201H39.8111C40.7914 52.0201 41.5853 52.814 41.5853 53.7943C41.5853 54.7745 40.7914 55.5684 39.8111 55.5684Z" fill="#EBEBEB"/>
<path d="M31.1066 44.7017C31.1066 45.1918 31.5036 45.5887 31.9937 45.5887H46.6863C47.1764 45.5887 47.5733 45.1918 47.5733 44.7017V36.2742H48.4106C49.3663 36.2742 50.188 35.5391 50.2324 34.5854C50.2801 33.5664 49.4684 32.7258 48.4605 32.7258H23.871C24.2135 31.7602 24.1761 31.0563 24.1761 30.3973H29.8314C30.8112 30.3973 31.6056 29.6028 31.6056 28.6231C31.6056 27.6432 30.8112 26.8489 29.8314 26.8489C28.9815 26.8489 12.6746 26.8489 11.9786 26.8489C10.9988 26.8489 10.2044 27.6432 10.2044 28.6231C10.2044 31.0643 10.128 31.65 10.5095 32.7258H2.8249C1.869 32.7258 1.0473 33.461 1.00297 34.4147C0.9553 35.4337 1.76703 36.2742 2.77496 36.2742H3.662V60.2258C3.662 61.2061 4.45598 62 5.43619 62H26.6711C27.1612 62 27.5582 61.603 27.5582 61.113V40.3161C27.5582 39.3603 28.2934 38.5386 29.247 38.4942C30.2661 38.4465 31.1066 39.2582 31.1066 40.2661V44.7017ZM37.5935 39.1573H39.8113C40.7915 39.1573 41.5855 39.9512 41.5855 40.9315C41.5855 41.9117 40.7915 42.7057 39.8113 42.7057H37.5935C36.6133 42.7057 35.8193 41.9117 35.8193 40.9315C35.8193 39.9512 36.6133 39.1573 37.5935 39.1573ZM12.0894 38.9356H20.0733C21.0536 38.9356 21.8475 39.7294 21.8475 40.7098C21.8475 41.69 21.0536 42.4839 20.0733 42.4839H12.0894C11.1092 42.4839 10.3152 41.69 10.3152 40.7098C10.3152 39.7294 11.1092 38.9356 12.0894 38.9356ZM23.6217 56.0122C23.6217 56.9924 22.8277 57.7864 21.8475 57.7864H10.3152C9.33503 57.7864 8.54106 56.9924 8.54106 56.0122V47.8065C8.54106 46.8262 9.33503 46.0323 10.3152 46.0323H21.8475C22.8277 46.0323 23.6217 46.8262 23.6217 47.8065V56.0122Z" fill="#EBEBEB"/>
<path d="M52.6616 61.0619C51.9866 59.767 53.0343 58.3155 54.4004 58.4605C55.3574 58.5521 56.086 59.4131 55.9916 60.3999C55.8246 62.1265 53.5042 62.6119 52.6616 61.0619Z" fill="#EBEBEB"/>
</g>
</g>
<defs>
<clipPath id="clip0_5043_10282">
<rect width="221" height="70" fill="white" transform="translate(0.5)"/>
</clipPath>
</defs>
</svg>
