<svg width="70" height="70" viewBox="0 0 70 70" fill="none" xmlns="http://www.w3.org/2000/svg">
<path d="M34.9999 44.8437C32.0169 44.8437 29.0835 44.0812 26.4781 42.6286C23.8727 41.176 21.6818 39.0815 20.1136 36.544C18.5453 34.0065 17.6517 31.1103 17.5176 28.1303C17.3835 25.1503 18.0134 22.1855 19.3475 19.5175C20.6815 16.8494 22.6754 14.5666 25.1398 12.8859C27.6043 11.2052 30.4574 10.1823 33.4283 9.91441C36.3993 9.64652 39.3894 10.1425 42.1147 11.3553C44.84 12.568 47.2101 14.4573 48.9999 16.8437C49.174 17.0758 49.2487 17.3675 49.2077 17.6546C49.1667 17.9418 49.0133 18.2009 48.7812 18.3749C48.5491 18.549 48.2574 18.6237 47.9703 18.5827C47.6831 18.5417 47.424 18.3883 47.2499 18.1562C44.9067 15.0513 41.4653 12.9595 37.6303 12.3088C33.7952 11.6582 29.8565 12.4979 26.6203 14.6562C23.3841 16.8145 21.0952 20.128 20.2221 23.9186C19.349 27.7092 19.9577 31.6902 21.9237 35.0467C23.8896 38.4032 27.0641 40.8814 30.7974 41.974C34.5307 43.0666 38.5403 42.6909 42.0057 40.924C45.4711 39.1571 48.1301 36.1324 49.4385 32.4692C50.7469 28.806 50.6056 24.7812 49.0437 21.2187C48.9771 21.086 48.9383 20.9411 48.9295 20.7928C48.9208 20.6446 48.9423 20.4962 48.9928 20.3565C49.0433 20.2169 49.1217 20.089 49.2232 19.9806C49.3247 19.8723 49.4472 19.7857 49.5833 19.7262C49.7193 19.6668 49.8661 19.6356 50.0146 19.6347C50.163 19.6337 50.3102 19.6631 50.4469 19.7208C50.5837 19.7786 50.7073 19.8636 50.8102 19.9707C50.913 20.0778 50.993 20.2047 51.0452 20.3437C52.2078 23.0074 52.6886 25.9186 52.4443 28.8146C52.2 31.7106 51.2383 34.5002 49.6461 36.9315C48.0538 39.3628 45.8811 41.3592 43.324 42.7406C40.767 44.122 37.9062 44.8447 34.9999 44.8437ZM40.0531 35.4374C40.2228 35.3159 40.3541 35.1483 40.4316 34.9545C40.5092 34.7607 40.5296 34.5487 40.4906 34.3437L39.7468 29.9687L42.8968 26.8953C43.0443 26.7533 43.1489 26.5728 43.1989 26.3743C43.2488 26.1758 43.2421 25.9673 43.1794 25.7725C43.1167 25.5776 43.0007 25.4043 42.8444 25.2721C42.688 25.14 42.4978 25.0543 42.2952 25.0249L37.9202 24.3906L35.9843 20.5078C35.8936 20.3257 35.7539 20.1726 35.581 20.0656C35.4081 19.9586 35.2088 19.9019 35.0054 19.9019C34.802 19.9019 34.6027 19.9586 34.4298 20.0656C34.2569 20.1726 34.1172 20.3257 34.0265 20.5078L32.0796 24.4562L27.7046 25.0906C27.5021 25.12 27.3118 25.2056 27.1555 25.3377C26.9992 25.4699 26.8831 25.6432 26.8205 25.8381C26.7578 26.0329 26.7511 26.2415 26.801 26.4399C26.851 26.6384 26.9556 26.8189 27.1031 26.9609L30.2531 30.0343L29.5093 34.4093C29.476 34.61 29.4992 34.816 29.5765 35.0041C29.6538 35.1923 29.782 35.3552 29.9468 35.4745C30.1115 35.5938 30.3063 35.6648 30.5092 35.6795C30.712 35.6942 30.915 35.652 31.0953 35.5578L34.9999 33.4687L38.8937 35.514C39.0743 35.6077 39.2775 35.6491 39.4804 35.6337C39.6832 35.6182 39.8778 35.5465 40.0421 35.4265L40.0531 35.4374ZM34.4968 31.2703L32.0468 32.5499L32.5171 29.8265C32.5458 29.6524 32.532 29.4739 32.4767 29.3063C32.4215 29.1387 32.3265 28.9869 32.1999 28.864L30.2202 26.939L32.9546 26.5453C33.1299 26.5189 33.2961 26.4504 33.439 26.3456C33.5819 26.2409 33.6972 26.1029 33.7749 25.9437L34.9999 23.4609L36.2249 25.9328C36.3027 26.092 36.418 26.2299 36.5609 26.3347C36.7038 26.4395 36.87 26.508 37.0452 26.5343L39.7796 26.9281L37.7999 28.8531C37.6733 28.976 37.5784 29.1278 37.5231 29.2954C37.4679 29.463 37.4541 29.6414 37.4827 29.8156L37.9531 32.539L35.514 31.2593C35.3571 31.1769 35.1826 31.1339 35.0054 31.1339C34.8282 31.1339 34.6537 31.1769 34.4968 31.2593V31.2703ZM40.5671 51.7124C41.7609 51.308 42.8001 50.5438 43.5421 49.5249C43.9644 48.9902 44.4748 48.5315 45.0515 48.1687C45.7082 47.9357 46.4 47.8173 47.0968 47.8187C48.3318 47.8569 49.549 47.5173 50.5859 46.8453C51.4737 45.9815 52.0767 44.8672 52.314 43.6515C52.4656 42.9767 52.7319 42.333 53.1015 41.7484C53.5877 41.2619 54.1537 40.8623 54.7749 40.5671C55.9145 40.0645 56.8726 39.2247 57.5203 38.1609C57.9428 37.007 58.0038 35.7519 57.6953 34.5624C57.5393 33.8775 57.5023 33.1709 57.5859 32.4734C57.809 31.8392 58.1381 31.2474 58.5593 30.7234C59.3667 29.7681 59.8628 28.5888 59.9812 27.3437C59.8609 26.0884 59.3568 24.9007 58.5374 23.9421C58.1161 23.4182 57.7869 22.8264 57.564 22.1921C57.4806 21.4946 57.5176 20.788 57.6734 20.1031C57.9826 18.9137 57.9216 17.6583 57.4984 16.5046C56.8513 15.4403 55.893 14.6004 54.7531 14.0984C54.1318 13.8032 53.5658 13.4037 53.0796 12.9171C52.7103 12.3324 52.4439 11.6887 52.2921 11.014C52.0541 9.7985 51.4513 8.68442 50.564 7.82026C49.5272 7.14825 48.3099 6.80865 47.0749 6.84682C46.3782 6.84819 45.6863 6.7298 45.0296 6.49682C44.4561 6.12953 43.9494 5.66718 43.5312 5.12963C42.7892 4.11076 41.7499 3.34661 40.5562 2.94213C39.345 2.79073 38.1165 3.01202 37.0343 3.57651C36.3974 3.90058 35.7091 4.11153 34.9999 4.19994C34.2935 4.12529 33.6053 3.92918 32.9656 3.62026C31.8831 3.05643 30.6548 2.83518 29.4437 2.98588C28.2499 3.39036 27.2107 4.15451 26.4687 5.17338C26.0465 5.70811 25.536 6.16679 24.9593 6.52963C24.3026 6.76261 23.6108 6.881 22.914 6.87963C21.679 6.84146 20.4618 7.18106 19.4249 7.85307C18.5371 8.71681 17.9341 9.83108 17.6968 11.0468C17.5453 11.7216 17.2789 12.3654 16.9093 12.9499C16.4231 13.4365 15.8571 13.836 15.2359 14.1312C14.0963 14.6338 13.1382 15.4736 12.4906 16.5374C12.3737 16.7816 12.2856 17.0385 12.2281 17.3031C12.1657 17.5932 12.2211 17.8961 12.3821 18.1453C12.5432 18.3946 12.7966 18.5696 13.0867 18.632C13.3767 18.6943 13.6797 18.6389 13.9289 18.4779C14.1781 18.3169 14.3532 18.0635 14.4156 17.7734C14.4375 17.6752 14.4705 17.5797 14.514 17.489C14.9909 16.8494 15.6286 16.3475 16.3624 16.0343C17.2107 15.5935 17.9678 14.996 18.5937 14.2734C19.1473 13.4768 19.5444 12.5823 19.764 11.6374C19.911 10.8564 20.2619 10.1281 20.7812 9.52651C21.4821 9.16177 22.2668 8.98823 23.0562 9.02338C24.031 9.02017 24.9962 8.83084 25.8999 8.46557C26.7404 7.99469 27.4829 7.36725 28.0874 6.61713C28.56 5.96545 29.1982 5.4519 29.9359 5.12963C30.6989 5.11831 31.452 5.30283 32.1234 5.66557C33.0159 6.08899 33.9811 6.33773 34.9671 6.39838C35.9531 6.33746 36.9183 6.08873 37.8109 5.66557C38.4822 5.30283 39.2354 5.11831 39.9984 5.12963C40.7575 5.42494 41.4226 5.92002 41.9234 6.56244C42.5277 7.31275 43.2703 7.94023 44.1109 8.41088C45.0139 8.7799 45.9791 8.97295 46.9546 8.97963C47.7442 8.96036 48.525 9.14895 49.2187 9.52651C49.7318 10.1336 50.0752 10.8657 50.214 11.6484C50.4403 12.5948 50.8449 13.4894 51.4062 14.2843C52.059 14.9986 52.8423 15.5814 53.714 16.0015C54.4453 16.3297 55.0758 16.8469 55.5406 17.4999C55.7438 18.2595 55.7438 19.0591 55.5406 19.8187C55.3256 20.774 55.2959 21.7616 55.4531 22.7281C55.7258 23.6428 56.1714 24.4967 56.7656 25.2437C57.3239 25.8587 57.7023 26.6155 57.8593 27.4312C57.7023 28.2469 57.3239 29.0037 56.7656 29.6187C56.1716 30.3658 55.7261 31.2197 55.4531 32.1343C55.2959 33.1008 55.3256 34.0884 55.5406 35.0437C55.7433 35.8033 55.7433 36.6028 55.5406 37.3624C55.0637 38.0021 54.4259 38.504 53.6921 38.8171C52.8378 39.2033 52.0627 39.7447 51.4062 40.414C50.8526 41.2106 50.4555 42.1051 50.2359 43.0499C50.0889 43.831 49.738 44.5592 49.2187 45.1609C48.5178 45.5256 47.7331 45.6992 46.9437 45.664C45.9689 45.6672 45.0037 45.8565 44.0999 46.2218C43.2595 46.6927 42.5169 47.3201 41.9124 48.0703C41.4398 48.7219 40.8017 49.2355 40.064 49.5578C39.301 49.5696 38.5477 49.385 37.8765 49.0218C36.984 48.5984 36.0187 48.3497 35.0327 48.289C34.0468 48.3499 33.0816 48.5987 32.189 49.0218C31.5178 49.385 30.7646 49.5696 30.0015 49.5578C29.2424 49.2624 28.5773 48.7674 28.0765 48.1249C27.4722 47.3746 26.7296 46.7472 25.889 46.2765C24.986 45.9075 24.0207 45.7144 23.0452 45.7078C22.2557 45.727 21.4749 45.5384 20.7812 45.1609C20.2681 44.5538 19.9247 43.8217 19.7859 43.039C19.5596 42.0926 19.155 41.198 18.5937 40.4031C17.9409 39.6888 17.1576 39.1059 16.2859 38.6859C15.5546 38.3577 14.9241 37.8405 14.4593 37.1874C14.256 36.4279 14.256 35.6282 14.4593 34.8687C14.6743 33.9134 14.704 32.9258 14.5468 31.9593C14.274 31.0446 13.8285 30.1907 13.2343 29.4437C12.676 28.8287 12.2976 28.0719 12.1406 27.2562C12.2981 26.4407 12.6765 25.6841 13.2343 25.0687L13.5953 24.5437C14.0297 23.9429 14.3521 23.2685 14.5468 22.5531C14.6617 21.8835 14.6617 21.1992 14.5468 20.5296C14.5296 20.386 14.4842 20.2472 14.4133 20.1211C14.3424 19.995 14.2474 19.8841 14.1337 19.7947C14.0199 19.7053 13.8897 19.6392 13.7504 19.6002C13.6111 19.5611 13.4654 19.5499 13.3218 19.5671C13.1782 19.5844 13.0393 19.6297 12.9132 19.7006C12.7871 19.7715 12.6762 19.8665 12.5869 19.9803C12.4975 20.094 12.4314 20.2243 12.3923 20.3636C12.3533 20.5029 12.3421 20.6485 12.3593 20.7921C12.4313 21.2157 12.4313 21.6483 12.3593 22.0718C12.22 22.5271 12.0056 22.9559 11.7249 23.3406L11.3859 23.8328C10.5732 24.8307 10.0949 26.059 10.0187 27.3437C10.139 28.599 10.6431 29.7867 11.4624 30.7453C11.8838 31.2692 12.213 31.8609 12.4359 32.4953C12.5193 33.1927 12.4823 33.8994 12.3265 34.5843C12.0173 35.7737 12.0783 37.029 12.5015 38.1828C13.1486 39.2471 14.1069 40.087 15.2468 40.589C15.8681 40.8842 16.4341 41.2837 16.9202 41.7703C17.2896 42.3549 17.556 42.9987 17.7078 43.6734C17.9457 44.8889 18.5486 46.003 19.4359 46.8671C20.4727 47.5391 21.69 47.8787 22.9249 47.8406C23.6217 47.8392 24.3136 47.9576 24.9703 48.1906C25.5468 48.5536 26.0572 49.0122 26.4796 49.5468C27.2216 50.5657 28.2609 51.3298 29.4546 51.7343C30.6657 51.8843 31.8939 51.6631 32.9765 51.0999C33.6107 50.7809 34.2952 50.5737 34.9999 50.4874C35.7064 50.5621 36.3946 50.7582 37.0343 51.0671C37.9032 51.4794 38.842 51.7243 39.8015 51.789C40.0555 51.7882 40.3087 51.7589 40.5562 51.7015L40.5671 51.7124ZM17.4999 40.5781L15.1812 66.1062L29.8046 51.4718C29.9838 51.2626 30.0774 50.9934 30.0668 50.7182C30.0562 50.4429 29.9421 50.1818 29.7473 49.987C29.5525 49.7922 29.2914 49.6781 29.0161 49.6674C28.7408 49.6568 28.4717 49.7505 28.2624 49.9296L15.1374 63.0546L13.9452 55.8687C13.9075 55.6445 13.8008 55.4377 13.6401 55.277C13.4794 55.1162 13.2725 55.0096 13.0484 54.9718L5.8515 53.7687L18.0249 41.5624C18.2041 41.3532 18.2978 41.0841 18.2871 40.8088C18.2765 40.5335 18.1624 40.2724 17.9676 40.0776C17.7728 39.8828 17.5117 39.7687 17.2364 39.7581C16.9611 39.7474 16.692 39.8411 16.4827 40.0203L2.79994 53.7249C2.65895 53.867 2.55963 54.045 2.5128 54.2395C2.46596 54.4341 2.4734 54.6378 2.53431 54.8284C2.59523 55.019 2.70727 55.1893 2.85825 55.3206C3.00922 55.452 3.19334 55.5394 3.39056 55.5734L11.8999 56.9953L13.3218 65.5046C13.3558 65.7019 13.4432 65.886 13.5746 66.0369C13.7059 66.1879 13.8762 66.3 14.0668 66.3609C14.2574 66.4218 14.4611 66.4292 14.6557 66.3824C14.8502 66.3356 15.0282 66.2362 15.1702 66.0953L17.4999 40.5781ZM59.7296 47.8078C59.9333 47.6028 60.0477 47.3256 60.0477 47.0367C60.0477 46.7477 59.9333 46.4705 59.7296 46.2656L53.5937 40.1515C53.3845 39.9723 53.1153 39.8787 52.84 39.8893C52.5648 39.9 52.3036 40.0141 52.1089 40.2089C51.9141 40.4037 51.7999 40.6648 51.7893 40.94C51.7787 41.2153 51.8723 41.4845 52.0515 41.6937L58.1546 47.7968C58.3596 48.0005 58.6368 48.1149 58.9257 48.1149C59.2147 48.1149 59.4919 48.0005 59.6968 47.7968L59.7296 47.8078ZM55.9343 66.4015C56.1257 66.3398 56.2965 66.2265 56.4277 66.074C56.5589 65.9216 56.6455 65.7359 56.6781 65.5374L58.0999 57.0281L66.6093 55.6062C66.8065 55.5722 66.9907 55.4848 67.1416 55.3535C67.2926 55.2221 67.4046 55.0518 67.4656 54.8612C67.5265 54.6706 67.5339 54.4669 67.4871 54.2723C67.4402 54.0778 67.3409 53.8998 67.1999 53.7578L64.0937 50.6296C63.8844 50.4504 63.6153 50.3568 63.34 50.3675C63.0648 50.3781 62.8036 50.4922 62.6089 50.687C62.4141 50.8818 62.2999 51.1429 62.2893 51.4182C62.2787 51.6934 62.3723 51.9626 62.5515 52.1718L64.1484 53.7687L56.9624 54.9609C56.7383 54.9986 56.5315 55.1053 56.3707 55.266C56.21 55.4268 56.1033 55.6336 56.0656 55.8578L54.8734 63.0437L42.339 50.5203C42.1298 50.3411 41.8606 50.2474 41.5854 50.2581C41.3101 50.2687 41.049 50.3828 40.8542 50.5776C40.6594 50.7724 40.5453 51.0335 40.5346 51.3088C40.524 51.5841 40.6176 51.8532 40.7968 52.0624L54.8187 66.1062C54.959 66.2468 55.1349 66.3465 55.3276 66.3947C55.5203 66.4429 55.7225 66.4377 55.9124 66.3796L55.9343 66.4015ZM61.2499 48.1249C61.0336 48.1249 60.8222 48.1891 60.6423 48.3093C60.4624 48.4295 60.3222 48.6003 60.2394 48.8001C60.1567 49 60.135 49.2199 60.1772 49.4321C60.2194 49.6442 60.3236 49.8391 60.4765 49.9921C60.6295 50.1451 60.8244 50.2492 61.0366 50.2914C61.2487 50.3336 61.4686 50.312 61.6685 50.2292C61.8684 50.1464 62.0392 50.0062 62.1594 49.8263C62.2795 49.6465 62.3437 49.435 62.3437 49.2187C62.3437 48.9286 62.2285 48.6504 62.0233 48.4453C61.8182 48.2402 61.54 48.1249 61.2499 48.1249Z" fill="#FF5147"/>
</svg>
