<svg width="40" height="40" viewBox="0 0 40 40" fill="none" xmlns="http://www.w3.org/2000/svg">
<g clip-path="url(#clip0_4606_801)">
<circle cx="20" cy="20" r="20" fill="#76499A"/>
<g clip-path="url(#clip1_4606_801)">
<path d="M28.8124 10.3391C28.2171 9.79063 25.8077 8.04219 20.4358 8.01875C20.4358 8.01875 14.103 7.63906 11.0187 10.4703C9.30303 12.1859 8.69834 14.7031 8.63271 17.8203C8.56709 20.9375 8.4874 26.7781 14.1171 28.3625H14.1218L14.1171 30.7813C14.1171 30.7813 14.0796 31.7609 14.7265 31.9578C15.5046 32.2016 15.964 31.4563 16.7093 30.6547C17.1171 30.2141 17.6796 29.5672 18.1062 29.075C21.9593 29.3984 24.9171 28.6578 25.2546 28.55C26.0327 28.2969 30.4343 27.7344 31.1468 21.8938C31.8874 15.8656 30.7905 12.0594 28.8124 10.3391ZM29.464 21.4531C28.8593 26.3281 25.2921 26.6375 24.6358 26.8484C24.3546 26.9375 21.753 27.5844 18.4858 27.3734C18.4858 27.3734 16.0483 30.3125 15.289 31.0766C15.0405 31.325 14.7687 31.3016 14.7733 30.8094C14.7733 30.4859 14.7921 26.7922 14.7921 26.7922C14.7874 26.7922 14.7874 26.7922 14.7921 26.7922C10.0202 25.4703 10.3015 20.4969 10.353 17.8953C10.4046 15.2938 10.8968 13.1609 12.3499 11.7266C14.9608 9.35938 20.3374 9.71094 20.3374 9.71094C24.8796 9.72969 27.0546 11.0984 27.5608 11.5578C29.2343 12.9922 30.0874 16.4234 29.464 21.4531ZM22.9483 17.6656C22.9671 18.0688 22.3624 18.0969 22.3437 17.6938C22.2921 16.6625 21.8093 16.1609 20.8155 16.1047C20.4124 16.0813 20.4499 15.4766 20.8483 15.5C22.1562 15.5703 22.8827 16.3203 22.9483 17.6656ZM23.8999 18.1953C23.9468 16.2078 22.7046 14.6516 20.3468 14.4781C19.9483 14.45 19.9905 13.8453 20.389 13.8734C23.1077 14.0703 24.5562 15.9406 24.5046 18.2094C24.4999 18.6125 23.8905 18.5938 23.8999 18.1953ZM26.103 18.8234C26.1077 19.2266 25.4983 19.2313 25.4983 18.8281C25.4702 15.0078 22.9249 12.9266 19.8358 12.9031C19.4374 12.8984 19.4374 12.2984 19.8358 12.2984C23.2905 12.3219 26.0702 14.7078 26.103 18.8234ZM25.5733 23.4219V23.4313C25.0671 24.3219 24.1202 25.3063 23.1452 24.9922L23.1358 24.9781C22.1468 24.7016 19.8171 23.5016 18.3452 22.3297C17.5858 21.7297 16.8921 21.0219 16.3577 20.3422C15.8749 19.7375 15.3874 19.0203 14.914 18.1578C13.9155 16.3531 13.6952 15.5469 13.6952 15.5469C13.3812 14.5719 14.3608 13.625 15.2562 13.1188H15.2655C15.6968 12.8938 16.1093 12.9688 16.3858 13.3016C16.3858 13.3016 16.9671 13.9953 17.2155 14.3375C17.4499 14.6563 17.764 15.1672 17.928 15.4531C18.214 15.9641 18.0358 16.4844 17.7546 16.7L17.1921 17.15C16.9062 17.3797 16.9437 17.8063 16.9437 17.8063C16.9437 17.8063 17.778 20.9609 20.8952 21.7578C20.8952 21.7578 21.3218 21.7953 21.5515 21.5094L22.0015 20.9469C22.2171 20.6656 22.7374 20.4875 23.2483 20.7734C23.9374 21.1625 24.814 21.7672 25.3952 22.3156C25.7233 22.5828 25.7983 22.9906 25.5733 23.4219Z" fill="white"/>
</g>
</g>
<defs>
<clipPath id="clip0_4606_801">
<rect width="40" height="40" fill="white"/>
</clipPath>
<clipPath id="clip1_4606_801">
<rect width="24" height="24" fill="white" transform="translate(8 8)"/>
</clipPath>
</defs>
</svg>
